<svg width="1136" height="941" viewBox="0 0 1136 941" fill="none" xmlns="http://www.w3.org/2000/svg">
<path d="M571.643 756.249C862.973 756.249 1099.14 740.614 1099.14 721.328C1099.14 702.041 862.973 686.406 571.643 686.406C280.312 686.406 44.1427 702.041 44.1427 721.328C44.1427 740.614 280.312 756.249 571.643 756.249Z" fill="#F2F2F2"/>
<path d="M551.425 339.028C465.481 339.028 403.774 394.167 403.774 522.826C403.774 668.639 465.481 707.236 551.425 707.236C637.369 707.236 702.752 664.963 702.752 522.826C702.752 370.886 637.369 339.028 551.425 339.028ZM551.99 658.836C492.463 658.836 461.364 623.913 461.364 522.92C461.364 433.808 493.736 386.815 553.263 386.815C612.79 386.815 645.162 417.683 645.162 522.92C645.162 621.367 611.517 658.836 551.99 658.836Z" fill="#2F2E41"/>
<path d="M352.311 605.535H316.776V500.895C316.776 495.338 314.568 490.007 310.638 486.077C306.708 482.147 301.378 479.94 295.82 479.94H287.494C284.742 479.94 282.017 480.482 279.475 481.535C276.932 482.588 274.622 484.132 272.676 486.077C270.73 488.023 269.187 490.334 268.133 492.876C267.08 495.419 266.538 498.144 266.538 500.895V605.535H166.308C164.246 605.535 162.219 605.002 160.424 603.988C158.629 602.974 157.126 601.513 156.062 599.747C154.997 597.981 154.408 595.969 154.35 593.908C154.292 591.847 154.767 589.806 155.73 587.983L261.813 387.203C263.135 384.699 263.937 381.954 264.169 379.132C264.402 376.311 264.06 373.471 263.165 370.786C262.269 368.1 260.839 365.623 258.96 363.505C257.081 361.388 254.793 359.673 252.232 358.464L245.97 355.506C241.108 353.21 235.548 352.871 230.443 354.559C225.337 356.248 221.076 359.834 218.541 364.576L89.1594 606.609C86.9562 610.731 85.8036 615.332 85.8036 620.005V620.005C85.8036 623.737 86.5386 627.432 87.9666 630.879C89.3946 634.327 91.4877 637.46 94.1264 640.098C96.7651 642.737 99.8976 644.83 103.345 646.258C106.793 647.686 110.488 648.421 114.219 648.421H266.538V714.588C266.538 717.887 267.188 721.153 268.45 724.201C269.713 727.248 271.563 730.018 273.895 732.35C276.228 734.683 278.997 736.533 282.045 737.795C285.092 739.058 288.359 739.707 291.657 739.707H291.657C294.956 739.707 298.222 739.058 301.27 737.795C304.317 736.533 307.087 734.683 309.419 732.35C311.752 730.018 313.602 727.248 314.864 724.201C316.127 721.153 316.776 717.887 316.776 714.588V648.421H352.311C357.998 648.421 363.452 646.162 367.473 642.14C371.494 638.119 373.754 632.665 373.754 626.978V626.978C373.754 621.291 371.494 615.837 367.473 611.815C363.452 607.794 357.998 605.535 352.311 605.535V605.535Z" fill="#6C63FF"/>
<path d="M1010.31 605.535H974.773V500.895C974.773 495.338 972.565 490.007 968.635 486.077C964.705 482.147 959.375 479.94 953.817 479.94H945.49C942.739 479.94 940.014 480.482 937.471 481.535C934.929 482.588 932.618 484.132 930.672 486.077C928.727 488.023 927.183 490.334 926.13 492.876C925.077 495.419 924.535 498.144 924.535 500.895V605.535H824.305C822.243 605.535 820.216 605.002 818.42 603.988C816.625 602.974 815.122 601.513 814.058 599.747C812.994 597.981 812.404 595.969 812.346 593.908C812.288 591.847 812.764 589.806 813.727 587.983L919.809 387.203C921.132 384.699 921.934 381.954 922.166 379.132C922.398 376.311 922.056 373.471 921.161 370.786C920.266 368.1 918.835 365.623 916.956 363.505C915.078 361.388 912.789 359.673 910.229 358.464L903.967 355.506C899.104 353.21 893.545 352.871 888.439 354.559C883.334 356.248 879.072 359.834 876.537 364.576L747.156 606.609C744.953 610.731 743.8 615.332 743.8 620.005V620.005C743.8 627.542 746.794 634.769 752.123 640.098C757.452 645.427 764.68 648.421 772.216 648.421H924.535V714.588C924.535 721.25 927.181 727.639 931.892 732.35C936.603 737.061 942.992 739.707 949.654 739.707V739.707C956.316 739.707 962.705 737.061 967.415 732.35C972.126 727.639 974.773 721.25 974.773 714.588V648.421H1010.31C1015.99 648.421 1021.45 646.162 1025.47 642.14C1029.49 638.119 1031.75 632.665 1031.75 626.978V626.978C1031.75 621.291 1029.49 615.837 1025.47 611.815C1021.45 607.794 1015.99 605.535 1010.31 605.535Z" fill="#6C63FF"/>
<path d="M362.113 593.282H326.579V488.642C326.579 485.89 326.037 483.165 324.984 480.623C323.931 478.08 322.387 475.77 320.441 473.824C318.495 471.878 316.185 470.335 313.643 469.282C311.1 468.229 308.375 467.686 305.623 467.686H297.297C291.739 467.686 286.409 469.894 282.479 473.824C278.549 477.754 276.341 483.084 276.341 488.642V593.282H176.111C174.049 593.282 172.022 592.749 170.227 591.735C168.431 590.72 166.929 589.259 165.864 587.493C164.8 585.727 164.21 583.716 164.152 581.655C164.094 579.594 164.57 577.553 165.533 575.73L271.615 374.949C272.938 372.446 273.74 369.701 273.972 366.879C274.204 364.058 273.862 361.218 272.967 358.532C272.072 355.847 270.642 353.37 268.763 351.252C266.884 349.134 264.595 347.419 262.035 346.21L255.773 343.253C250.91 340.957 245.351 340.618 240.245 342.306C235.14 343.995 230.879 347.581 228.344 352.323L98.962 594.356C96.7589 598.477 95.6062 603.079 95.6062 607.752V607.752C95.6062 615.288 98.6 622.516 103.929 627.845C109.258 633.174 116.486 636.168 124.022 636.168H276.341V702.335C276.341 705.634 276.991 708.9 278.253 711.948C279.515 714.995 281.365 717.764 283.698 720.097C286.031 722.429 288.8 724.28 291.847 725.542C294.895 726.804 298.161 727.454 301.46 727.454H301.46C308.122 727.454 314.511 724.808 319.222 720.097C323.932 715.386 326.579 708.997 326.579 702.335V636.168H362.113C364.929 636.168 367.717 635.613 370.319 634.536C372.921 633.458 375.285 631.879 377.276 629.887C379.267 627.896 380.846 625.532 381.924 622.931C383.002 620.329 383.556 617.541 383.556 614.725V614.725C383.556 611.909 383.002 609.12 381.924 606.519C380.846 603.917 379.267 601.553 377.276 599.562C375.285 597.571 372.921 595.992 370.319 594.914C367.717 593.836 364.929 593.282 362.113 593.282V593.282Z" stroke="#3F3D56" stroke-miterlimit="10"/>
<path d="M1028.69 593.282H993.153V488.642C993.153 483.084 990.945 477.754 987.015 473.824C983.085 469.894 977.755 467.686 972.197 467.686H963.87C961.118 467.686 958.393 468.229 955.851 469.282C953.308 470.335 950.998 471.878 949.052 473.824C947.106 475.77 945.563 478.08 944.51 480.623C943.457 483.165 942.915 485.89 942.915 488.642V593.282H842.684C840.623 593.282 838.596 592.749 836.8 591.735C835.005 590.72 833.502 589.259 832.438 587.493C831.374 585.727 830.784 583.716 830.726 581.655C830.668 579.594 831.144 577.553 832.107 575.73L938.189 374.949C939.512 372.446 940.313 369.701 940.546 366.879C940.778 364.058 940.436 361.218 939.541 358.532C938.646 355.847 937.215 353.37 935.336 351.252C933.457 349.134 931.169 347.419 928.609 346.21L922.347 343.253C917.484 340.957 911.925 340.618 906.819 342.306C901.714 343.995 897.452 347.581 894.917 352.323L765.536 594.356C763.333 598.477 762.18 603.079 762.18 607.752C762.18 615.288 765.174 622.516 770.503 627.845C775.832 633.174 783.059 636.168 790.596 636.168H942.915V702.335C942.915 708.997 945.561 715.386 950.272 720.097C954.982 724.808 961.372 727.454 968.034 727.454V727.454C974.696 727.454 981.085 724.808 985.795 720.097C990.506 715.386 993.153 708.997 993.153 702.335V636.168H1028.69C1031.5 636.168 1034.29 635.613 1036.89 634.536C1039.49 633.458 1041.86 631.879 1043.85 629.887C1045.84 627.896 1047.42 625.532 1048.5 622.931C1049.58 620.329 1050.13 617.541 1050.13 614.725V614.725C1050.13 609.038 1047.87 603.584 1043.85 599.562C1039.83 595.541 1034.37 593.282 1028.69 593.282V593.282Z" stroke="#3F3D56" stroke-miterlimit="10"/>
<path d="M571.03 328C485.086 328 423.379 383.139 423.379 511.798C423.379 657.611 485.086 696.208 571.03 696.208C656.974 696.208 722.357 653.935 722.357 511.798C722.357 359.858 656.974 328 571.03 328ZM571.595 647.808C512.068 647.808 480.969 612.886 480.969 511.892C480.969 422.78 513.341 375.787 572.868 375.787C632.395 375.787 664.767 406.655 664.767 511.892C664.767 610.339 631.122 647.808 571.595 647.808V647.808Z" stroke="#3F3D56" stroke-miterlimit="10"/>
<path d="M1037.86 591.568C1040.89 592.669 1044.14 593.052 1047.34 592.685C1050.54 592.319 1053.61 591.214 1056.32 589.458C1059.02 587.701 1061.28 585.341 1062.91 582.563C1064.55 579.785 1065.51 576.665 1065.74 573.449C1065.96 570.234 1065.43 567.011 1064.2 564.033C1062.96 561.056 1061.05 558.406 1058.62 556.293C1056.19 554.18 1053.29 552.66 1050.17 551.855C1047.05 551.05 1043.79 550.981 1040.63 551.653L1041.16 562.365L1036.09 553.184C1031.11 555.521 1027.27 559.738 1025.4 564.907C1024.74 566.718 1024.34 568.613 1024.21 570.537C1023.89 575.05 1025.05 579.545 1027.51 583.34C1029.98 587.135 1033.61 590.024 1037.86 591.568V591.568Z" fill="#57B894"/>
<path d="M1062.94 715.811C1061.15 706.701 1068.9 698.624 1076.56 693.375C1084.22 688.125 1093.17 682.967 1095.78 674.058C1099.53 661.254 1088.35 649.528 1079.64 639.416C1073.18 631.912 1067.64 623.669 1063.12 614.859C1061.31 611.326 1059.64 607.633 1059.17 603.693C1058.48 598.017 1060.3 592.369 1062.14 586.956C1068.26 568.921 1074.8 551.038 1081.77 533.306" stroke="#3F3D56" stroke-miterlimit="10"/>
<path d="M1038.72 588.81C1041.75 589.911 1044.99 590.294 1048.2 589.928C1051.4 589.561 1054.47 588.456 1057.17 586.7C1059.88 584.943 1062.13 582.583 1063.77 579.805C1065.4 577.027 1066.37 573.907 1066.59 570.691C1066.82 567.476 1066.29 564.253 1065.06 561.275C1063.82 558.298 1061.91 555.648 1059.48 553.535C1057.04 551.422 1054.15 549.902 1051.03 549.097C1047.91 548.292 1044.64 548.223 1041.49 548.895L1042.01 559.607L1036.94 550.426C1031.97 552.764 1028.13 556.98 1026.26 562.149C1025.6 563.96 1025.19 565.855 1025.06 567.779C1024.74 572.293 1025.9 576.787 1028.37 580.582C1030.83 584.378 1034.47 587.266 1038.72 588.81V588.81Z" stroke="#3F3D56" stroke-miterlimit="10"/>
<path d="M1060.4 529.606C1061.59 526.326 1063.58 523.398 1066.2 521.092C1068.82 518.785 1071.97 517.175 1075.38 516.409L1077.09 526.592L1080.27 515.897C1084.68 515.962 1088.95 517.428 1092.48 520.082C1096 522.736 1098.59 526.441 1099.87 530.663C1101.15 534.885 1101.06 539.404 1099.6 543.569C1098.15 547.733 1095.41 551.328 1091.78 553.833C1088.15 556.339 1083.81 557.625 1079.4 557.507C1074.99 557.389 1070.73 555.872 1067.24 553.176C1063.75 550.48 1061.2 546.744 1059.97 542.508C1058.74 538.271 1058.89 533.753 1060.4 529.606H1060.4Z" fill="#57B894"/>
<path d="M1061.54 525.929C1062.73 522.649 1064.72 519.721 1067.34 517.414C1069.96 515.108 1073.12 513.497 1076.52 512.731L1078.23 522.915L1081.41 512.22C1085.82 512.285 1090.1 513.751 1093.62 516.405C1097.15 519.059 1099.73 522.764 1101.02 526.986C1102.3 531.207 1102.2 535.727 1100.75 539.891C1099.29 544.056 1096.55 547.651 1092.92 550.156C1089.29 552.661 1084.95 553.948 1080.54 553.83C1076.13 553.712 1071.88 552.195 1068.38 549.499C1064.89 546.803 1062.35 543.067 1061.12 538.831C1059.89 534.594 1060.03 530.076 1061.54 525.929H1061.54Z" stroke="#3F3D56" stroke-miterlimit="10"/>
<path d="M1075.99 639.622C1080.79 641.365 1086.07 641.279 1090.82 639.381C1095.56 637.482 1099.44 633.905 1101.72 629.329C1103.99 624.754 1104.51 619.501 1103.16 614.571C1101.81 609.642 1098.7 605.38 1094.41 602.6L1091.97 610.819L1090.24 600.515C1090.22 600.507 1090.2 600.5 1090.18 600.495C1087.61 599.561 1084.89 599.143 1082.15 599.264C1079.42 599.385 1076.74 600.043 1074.27 601.2C1071.79 602.357 1069.56 603.992 1067.72 606.009C1065.87 608.026 1064.44 610.388 1063.51 612.958C1062.58 615.528 1062.16 618.256 1062.29 620.988C1062.41 623.719 1063.07 626.399 1064.23 628.876C1065.38 631.352 1067.02 633.575 1069.04 635.419C1071.06 637.263 1073.42 638.692 1075.99 639.622H1075.99Z" fill="#57B894"/>
<path d="M1076.98 635.898C1081.78 637.64 1087.06 637.554 1091.81 635.656C1096.55 633.758 1100.43 630.18 1102.71 625.604C1104.98 621.029 1105.5 615.776 1104.15 610.846C1102.8 605.917 1099.69 601.656 1095.4 598.875L1092.96 607.094L1091.23 596.791C1091.21 596.783 1091.19 596.776 1091.17 596.77C1088.6 595.837 1085.88 595.418 1083.14 595.539C1080.41 595.66 1077.73 596.318 1075.26 597.475C1072.78 598.633 1070.55 600.267 1068.71 602.284C1066.86 604.302 1065.43 606.663 1064.5 609.233C1063.57 611.803 1063.15 614.532 1063.28 617.263C1063.4 619.994 1064.06 622.675 1065.22 625.151C1066.38 627.627 1068.01 629.851 1070.03 631.695C1072.05 633.539 1074.41 634.967 1076.98 635.898H1076.98Z" stroke="#3F3D56" stroke-miterlimit="10"/>
<path d="M1054.32 674.185C1055.15 678.885 1057.57 683.159 1061.17 686.288C1064.77 689.418 1069.34 691.214 1074.11 691.374C1078.88 691.535 1083.56 690.051 1087.36 687.17C1091.17 684.29 1093.87 680.189 1095.01 675.555C1096.15 670.921 1095.66 666.036 1093.63 661.719C1091.59 657.402 1088.14 653.915 1083.84 651.844C1079.54 649.773 1074.66 649.243 1070.01 650.344C1065.37 651.444 1061.25 654.108 1058.33 657.888L1067.61 671.844L1054.94 664.437C1053.95 667.59 1053.74 670.933 1054.32 674.185V674.185Z" fill="#57B894"/>
<path d="M1055.18 671.427C1056.01 676.127 1058.42 680.401 1062.03 683.53C1065.63 686.66 1070.2 688.456 1074.97 688.616C1079.74 688.777 1084.42 687.293 1088.22 684.412C1092.03 681.532 1094.73 677.431 1095.87 672.797C1097.01 668.163 1096.52 663.278 1094.48 658.961C1092.45 654.644 1088.99 651.158 1084.7 649.086C1080.4 647.015 1075.52 646.485 1070.87 647.586C1066.23 648.686 1062.1 651.35 1059.19 655.13L1068.46 669.086L1055.79 661.679C1054.81 664.832 1054.6 668.175 1055.18 671.427V671.427Z" stroke="#3F3D56" stroke-miterlimit="10"/>
<path d="M40.0067 642.267C41.997 642.99 44.1282 643.242 46.2322 643.001C48.3362 642.761 50.3556 642.035 52.1312 640.881C53.9068 639.726 55.39 638.176 56.464 636.35C57.538 634.525 58.1734 632.475 58.3201 630.363C58.4668 628.25 58.1208 626.132 57.3094 624.176C56.498 622.22 55.2433 620.479 53.6442 619.091C52.0452 617.702 50.1455 616.704 48.0949 616.175C46.0444 615.646 43.8989 615.6 41.8277 616.042L42.17 623.08L38.8401 617.048C35.572 618.584 33.0473 621.354 31.8208 624.75C31.3852 625.94 31.1203 627.185 31.0342 628.449C30.824 631.415 31.5862 634.368 33.2053 636.861C34.8244 639.355 37.2122 641.252 40.0067 642.267V642.267Z" fill="#57B894"/>
<path d="M56.483 723.897C55.3076 717.911 60.401 712.605 65.4322 709.156C70.4633 705.707 76.3419 702.318 78.0586 696.464C80.5257 688.052 73.1769 680.348 67.4571 673.704C63.2136 668.774 59.5695 663.358 56.6009 657.569C55.3103 655.296 54.4312 652.812 54.0042 650.233C53.5532 646.504 54.7512 642.794 55.9581 639.237C59.9787 627.388 64.2775 615.638 68.8543 603.988" stroke="#3F3D56" stroke-miterlimit="10"/>
<path d="M40.5698 640.455C42.5601 641.178 44.6913 641.43 46.7953 641.189C48.8993 640.949 50.9187 640.223 52.6943 639.069C54.4699 637.914 55.9531 636.364 57.0271 634.538C58.1011 632.713 58.7365 630.663 58.8832 628.551C59.0299 626.438 58.6839 624.32 57.8725 622.364C57.061 620.408 55.8064 618.667 54.2073 617.279C52.6083 615.89 50.7086 614.892 48.6581 614.363C46.6075 613.834 44.462 613.788 42.3908 614.23L42.7331 621.268L39.4032 615.236C36.1352 616.772 33.6104 619.542 32.3839 622.938C31.9483 624.128 31.6835 625.373 31.5973 626.637C31.3871 629.603 32.1493 632.556 33.7684 635.049C35.3875 637.543 37.7753 639.44 40.5698 640.455V640.455Z" stroke="#3F3D56" stroke-miterlimit="10"/>
<path d="M54.8116 601.557C55.5927 599.402 56.9037 597.478 58.6236 595.963C60.3436 594.447 62.4174 593.389 64.6537 592.886L65.7796 599.577L67.867 592.55C70.7652 592.593 73.5747 593.556 75.89 595.299C78.2052 597.043 79.9064 599.478 80.7479 602.251C81.5894 605.025 81.5276 607.994 80.5715 610.731C79.6154 613.467 77.8145 615.829 75.4287 617.475C73.043 619.121 70.1958 619.966 67.2984 619.888C64.4009 619.811 61.603 618.814 59.3088 617.043C57.0145 615.272 55.3425 612.817 54.5341 610.034C53.7258 607.25 53.823 604.282 54.8116 601.557V601.557Z" fill="#57B894"/>
<path d="M55.5625 599.141C56.3436 596.986 57.6545 595.062 59.3745 593.547C61.0945 592.031 63.1682 590.973 65.4046 590.47L66.5305 597.161L68.6178 590.134C71.516 590.177 74.3256 591.14 76.6408 592.883C78.9561 594.627 80.6573 597.062 81.4987 599.835C82.3402 602.609 82.2785 605.578 81.3224 608.315C80.3663 611.051 78.5654 613.413 76.1796 615.059C73.7938 616.705 70.9467 617.55 68.0492 617.472C65.1517 617.395 62.3539 616.398 60.0596 614.627C57.7653 612.856 56.0933 610.401 55.285 607.618C54.4767 604.834 54.5738 601.866 55.5625 599.141V599.141Z" stroke="#3F3D56" stroke-miterlimit="10"/>
<path d="M65.0568 673.84C68.2133 674.985 71.6806 674.928 74.798 673.681C77.9154 672.434 80.4649 670.083 81.9605 667.077C83.4561 664.071 83.7932 660.619 82.9076 657.38C82.022 654.142 79.9756 651.342 77.1585 649.515L75.5546 654.915L74.4172 648.146C74.406 648.14 74.3944 648.136 74.3824 648.132C72.6941 647.518 70.9013 647.243 69.1066 647.322C67.3118 647.402 65.5503 647.834 63.9226 648.594C62.295 649.355 60.8331 650.428 59.6206 651.754C58.408 653.079 57.4686 654.631 56.856 656.32C56.2433 658.008 55.9695 659.801 56.0502 661.596C56.1308 663.391 56.5643 665.152 57.3259 666.779C58.0875 668.406 59.1623 669.867 60.4888 671.079C61.8153 672.29 63.3676 673.228 65.0568 673.84V673.84Z" fill="#57B894"/>
<path d="M65.7074 671.393C68.8638 672.538 72.3312 672.481 75.4486 671.234C78.566 669.987 81.1154 667.636 82.611 664.63C84.1066 661.623 84.4437 658.172 83.5582 654.933C82.6726 651.695 80.6262 648.895 77.809 647.068L76.2051 652.468L75.0678 645.698C75.0566 645.693 75.0449 645.689 75.033 645.685C73.345 645.073 71.553 644.799 69.7592 644.879C67.9654 644.959 66.2049 645.392 64.5784 646.153C61.2934 647.689 58.7532 650.467 57.5165 653.876C56.2799 657.285 56.4481 661.046 57.9842 664.331C59.5203 667.616 62.2984 670.156 65.7074 671.393V671.393Z" stroke="#3F3D56" stroke-miterlimit="10"/>
<path d="M50.8213 696.548C51.364 699.636 52.952 702.444 55.3191 704.5C57.6861 706.556 60.6882 707.736 63.8219 707.842C66.9555 707.947 70.0302 706.972 72.5302 705.08C75.0302 703.187 76.8035 700.493 77.5527 697.448C78.302 694.404 77.9815 691.194 76.6452 688.358C75.3089 685.521 73.0379 683.231 70.2131 681.87C67.3884 680.509 64.1816 680.161 61.1307 680.884C58.0797 681.607 55.3701 683.357 53.4563 685.84L59.5486 695.01L51.2242 690.143C50.5788 692.215 50.4406 694.412 50.8213 696.548V696.548Z" fill="#57B894"/>
<path d="M51.3844 694.736C51.9271 697.824 53.5151 700.632 55.8822 702.688C58.2492 704.744 61.2513 705.924 64.385 706.029C67.5186 706.135 70.5933 705.16 73.0933 703.267C75.5933 701.375 77.3666 698.681 78.1158 695.636C78.8651 692.591 78.5447 689.382 77.2083 686.545C75.872 683.709 73.601 681.418 70.7762 680.058C67.9515 678.697 64.7447 678.349 61.6938 679.072C58.6428 679.795 55.9332 681.545 54.0194 684.028L60.1117 693.198L51.7873 688.331C51.1419 690.403 51.0037 692.599 51.3844 694.736V694.736Z" stroke="#3F3D56" stroke-miterlimit="10"/>
<path d="M894 753H658C657.735 753 657.48 753.158 657.293 753.439C657.105 753.721 657 754.102 657 754.5C657 754.898 657.105 755.279 657.293 755.561C657.48 755.842 657.735 756 658 756H894C894.265 756 894.52 755.842 894.707 755.561C894.895 755.279 895 754.898 895 754.5C895 754.102 894.895 753.721 894.707 753.439C894.52 753.158 894.265 753 894 753Z" fill="#3F3D56"/>
<path d="M685 149.804C638.38 142.364 585.29 138.394 530 138.394C479.4 138.394 430.65 141.714 387.02 147.974C387.03 147.304 387.04 146.634 387.07 145.964C388.226 107.074 404.549 70.1783 432.55 43.1639C460.55 16.1495 498.007 1.1592 536.914 1.39689C575.821 1.63458 613.091 17.0814 640.759 44.4359C668.428 71.7904 684.299 108.882 684.98 147.784C684.99 148.464 685 149.134 685 149.804Z" fill="#6C63FF"/>
<g opacity="0.1">
<path opacity="0.1" d="M555.55 1.34133C534.857 -1.45373 513.808 0.130426 493.766 5.99112C473.724 11.8518 455.138 21.8583 439.211 35.362C423.284 48.8656 410.372 65.5652 401.312 84.3784C392.252 103.192 387.246 123.698 386.619 144.57C386.589 145.24 386.579 145.91 386.569 146.58C399.531 144.72 412.954 143.127 426.734 141.796C428.42 107.025 442.225 73.9407 465.755 48.2849C489.285 22.6292 521.054 6.02064 555.55 1.34133V1.34133Z" fill="white"/>
</g>
<path d="M750.18 161.624C728.72 155.806 706.953 151.186 684.98 147.784C648.966 142.203 612.658 138.714 576.24 137.334C561.07 136.714 545.62 136.394 530 136.394C517.62 136.394 505.34 136.594 493.23 136.994C457.706 138.044 422.266 141.038 387.07 145.964C361.016 149.552 335.214 154.782 309.82 161.624C250.61 177.994 218 199.934 218 223.394C218 246.854 250.61 268.794 309.82 285.164C351.46 296.684 402.8 304.534 458.74 308.134C481.83 309.634 505.7 310.394 530 310.394C554.38 310.394 578.33 309.624 601.49 308.124C652.4 304.834 699.5 298.024 738.92 288.124C739.13 288.064 739.33 288.014 739.54 287.964C742.2 287.304 744.82 286.614 747.41 285.924C748.34 285.664 749.26 285.414 750.18 285.164C750.232 285.143 750.285 285.126 750.34 285.114C751.22 284.874 752.09 284.624 752.96 284.384C754.7 283.884 756.42 283.394 758.11 282.884C758.19 282.864 758.26 282.844 758.33 282.824C759.8 282.384 761.24 281.944 762.67 281.504C763.84 281.134 765 280.774 766.15 280.404C766.99 280.134 767.82 279.864 768.64 279.594C769.24 279.394 769.83 279.204 770.41 279.004C771.2 278.744 771.99 278.474 772.77 278.204C773.1 278.094 773.43 277.984 773.75 277.864C774.5 277.614 775.23 277.354 775.96 277.094C776.75 276.814 777.54 276.524 778.32 276.244C778.97 276.014 779.62 275.774 780.26 275.534C780.8 275.324 781.33 275.124 781.87 274.924C783.34 274.374 784.78 273.804 786.2 273.244C786.91 272.954 787.62 272.674 788.32 272.384C789.01 272.104 789.71 271.814 790.39 271.524C791.51 271.054 792.61 270.584 793.69 270.114C794.21 269.874 794.74 269.644 795.25 269.424C795.64 269.244 796.02 269.074 796.41 268.894C796.69 268.774 796.97 268.644 797.24 268.514C798.25 268.054 799.25 267.584 800.23 267.114C803.99 265.314 807.5 263.474 810.76 261.594C831.21 249.884 842 236.894 842 223.394C842 199.934 809.39 177.994 750.18 161.624ZM749.64 283.244C707.95 294.774 656.47 302.624 600.38 306.194C577.57 307.644 553.99 308.394 530 308.394C506.09 308.394 482.59 307.654 459.85 306.204C403.67 302.644 352.11 294.794 310.36 283.244C252.09 267.124 220 245.874 220 223.394C220.003 221.408 220.252 219.429 220.74 217.504C225.84 197.224 257.21 178.244 310.36 163.544C335.562 156.755 361.166 151.555 387.02 147.974C422.428 143.02 458.082 140.016 493.82 138.974C505.74 138.584 517.8 138.391 530 138.394C545.41 138.394 560.65 138.704 575.63 139.304C612.26 140.672 648.779 144.178 685 149.804C706.783 153.191 728.363 157.778 749.64 163.544C802.78 178.244 834.14 197.214 839.25 217.484C839.746 219.415 839.998 221.4 840 223.394C840 245.874 807.91 267.124 749.64 283.244V283.244Z" fill="#3F3D56"/>
<path d="M841.43 224.304C841.43 237.664 830.42 250.304 810.76 261.594C807.49 263.474 803.97 265.314 800.23 267.114C799.25 267.584 798.25 268.054 797.24 268.514C796.97 268.644 796.69 268.774 796.41 268.894C796.02 269.074 795.64 269.244 795.25 269.424C794.74 269.644 794.21 269.874 793.69 270.114C792.61 270.584 791.51 271.054 790.39 271.524C789.71 271.814 789.01 272.104 788.32 272.384C787.62 272.674 786.91 272.954 786.2 273.244C784.78 273.804 783.34 274.374 781.87 274.924C781.33 275.124 780.8 275.324 780.26 275.534C779.62 275.774 778.97 276.014 778.32 276.244C777.54 276.524 776.75 276.814 775.96 277.094C775.23 277.354 774.5 277.614 773.75 277.864C773.43 277.984 773.1 278.094 772.77 278.204C771.99 278.474 771.2 278.744 770.41 279.004C769.83 279.204 769.24 279.394 768.64 279.594C767.82 279.864 766.99 280.134 766.15 280.404C765 280.774 763.84 281.134 762.67 281.504C761.24 281.944 759.8 282.384 758.33 282.824C758.26 282.844 758.19 282.864 758.11 282.884C756.42 283.394 754.7 283.884 752.96 284.384C752.09 284.624 751.22 284.874 750.34 285.114C750.285 285.126 750.232 285.143 750.18 285.164C749.26 285.414 748.34 285.664 747.41 285.924C744.83 286.604 742.2 287.294 739.54 287.964C739.33 288.014 739.13 288.064 738.92 288.124C700.57 297.704 653.52 304.684 601.45 308.054C578.64 309.524 554.86 310.304 530.43 310.304C505.78 310.304 481.8 309.514 458.81 308.014C321.57 299.064 219.43 264.984 219.43 224.304C219.441 221.829 219.818 219.369 220.55 217.004C220.61 217.174 220.67 217.334 220.74 217.504C235.01 254.984 336.28 285.274 467.68 292.664C487.81 293.804 508.66 294.394 530 294.394C551.43 294.394 572.36 293.794 592.57 292.654C723.86 285.234 825.03 254.934 839.25 217.484C839.49 216.884 839.7 216.284 839.88 215.684C840.894 218.445 841.418 221.362 841.43 224.304V224.304Z" fill="#3F3D56"/>
<path d="M309.669 213.54C293.027 213.54 275.339 209.959 275.339 203.323C275.339 196.687 293.027 193.106 309.669 193.106C326.312 193.106 344 196.687 344 203.323C344 209.959 326.312 213.54 309.669 213.54ZM309.669 195.106C290.616 195.106 277.339 199.437 277.339 203.323C277.339 207.209 290.616 211.54 309.669 211.54C328.722 211.54 342 207.209 342 203.323C342 199.437 328.722 195.106 309.669 195.106V195.106Z" fill="#3F3D56"/>
<path d="M380.669 260.54C364.027 260.54 346.339 256.959 346.339 250.323C346.339 243.687 364.027 240.106 380.669 240.106C397.312 240.106 415 243.687 415 250.323C415 256.959 397.312 260.54 380.669 260.54ZM380.669 242.106C361.616 242.106 348.339 246.437 348.339 250.323C348.339 254.209 361.616 258.54 380.669 258.54C399.722 258.54 413 254.209 413 250.323C413 246.437 399.722 242.106 380.669 242.106V242.106Z" fill="#3F3D56"/>
<path d="M749.669 213.54C733.027 213.54 715.339 209.959 715.339 203.323C715.339 196.687 733.027 193.106 749.669 193.106C766.312 193.106 784 196.687 784 203.323C784 209.959 766.312 213.54 749.669 213.54ZM749.669 195.106C730.616 195.106 717.339 199.437 717.339 203.323C717.339 207.209 730.616 211.54 749.669 211.54C768.722 211.54 782 207.209 782 203.323C782 199.437 768.722 195.106 749.669 195.106V195.106Z" fill="#3F3D56"/>
<path d="M678.669 260.54C662.027 260.54 644.339 256.959 644.339 250.323C644.339 243.687 662.027 240.106 678.669 240.106C695.312 240.106 713 243.687 713 250.323C713 256.959 695.312 260.54 678.669 260.54ZM678.669 242.106C659.616 242.106 646.339 246.437 646.339 250.323C646.339 254.209 659.616 258.54 678.669 258.54C697.722 258.54 711 254.209 711 250.323C711 246.437 697.722 242.106 678.669 242.106V242.106Z" fill="#3F3D56"/>
<path d="M529.669 282.54C513.027 282.54 495.339 278.959 495.339 272.323C495.339 265.687 513.027 262.106 529.669 262.106C546.312 262.106 564 265.687 564 272.323C564 278.959 546.312 282.54 529.669 282.54ZM529.669 264.106C510.616 264.106 497.339 268.437 497.339 272.323C497.339 276.209 510.616 280.54 529.669 280.54C548.722 280.54 562 276.209 562 272.323C562 268.437 548.722 264.106 529.669 264.106V264.106Z" fill="#3F3D56"/>
<path d="M546.978 497.717C570.181 497.717 588.99 478.907 588.99 455.704C588.99 432.502 570.181 413.692 546.978 413.692C523.775 413.692 504.966 432.502 504.966 455.704C504.966 478.907 523.775 497.717 546.978 497.717Z" fill="#2F2E41"/>
<path d="M531.002 483.307L510.555 493.546L516.27 504.958L536.717 494.719L531.002 483.307Z" fill="#2F2E41"/>
<path d="M518.966 503.8C520.178 501.961 517.186 497.849 512.282 494.616C507.378 491.382 502.419 490.252 501.207 492.091C499.994 493.93 502.987 498.042 507.891 501.275C512.795 504.509 517.753 505.639 518.966 503.8Z" fill="#2F2E41"/>
<path d="M562.954 483.307L557.239 494.719L577.686 504.959L583.401 493.546L562.954 483.307Z" fill="#2F2E41"/>
<path d="M586.065 501.275C590.969 498.042 593.962 493.93 592.749 492.091C591.537 490.252 586.578 491.382 581.674 494.616C576.77 497.849 573.777 501.961 574.99 503.8C576.203 505.639 581.161 504.509 586.065 501.275Z" fill="#2F2E41"/>
<path d="M544.037 459.786C551.967 459.786 558.395 453.358 558.395 445.428C558.395 437.498 551.967 431.069 544.037 431.069C536.107 431.069 529.678 437.498 529.678 445.428C529.678 453.358 536.107 459.786 544.037 459.786Z" fill="white"/>
<path d="M547.529 442.675C549.391 440.814 549.38 437.785 547.505 435.911C545.631 434.036 542.602 434.026 540.741 435.887C538.88 437.748 538.89 440.777 540.765 442.651C542.639 444.526 545.668 444.536 547.529 442.675Z" fill="#3F3D56"/>
<path d="M580.12 409.999C580.752 394.446 567.347 381.272 550.179 380.574C533.011 379.877 518.582 391.92 517.95 407.474C517.318 423.028 529.252 426.561 546.42 427.259C563.587 427.956 579.488 425.553 580.12 409.999Z" fill="#6C63FF"/>
<path d="M604.337 477.703C607.1 475.331 603.214 466.272 595.657 457.469C588.101 448.667 579.734 443.454 576.971 445.826C574.207 448.198 578.093 457.258 585.65 466.06C593.207 474.863 601.573 480.076 604.337 477.703Z" fill="#2F2E41"/>
<path d="M508.423 466.06C515.98 457.258 519.866 448.198 517.102 445.826C514.339 443.454 505.973 448.667 498.416 457.469C490.859 466.272 486.973 475.331 489.737 477.703C492.5 480.076 500.866 474.863 508.423 466.06Z" fill="#2F2E41"/>
<path d="M558.517 472.261C558.971 474.759 558.415 477.335 556.97 479.422C555.526 481.51 553.311 482.938 550.813 483.393C548.316 483.848 545.74 483.291 543.652 481.847C541.564 480.402 540.136 478.187 539.681 475.69L539.678 475.671C538.736 470.469 542.758 468.628 547.96 467.686C553.163 466.745 557.575 467.059 558.517 472.261Z" fill="white"/>
<path d="M476 500.394C475.47 500.394 474.961 500.183 474.586 499.808C474.211 499.433 474 498.924 474 498.394V380.394C474 379.864 474.211 379.355 474.586 378.98C474.961 378.605 475.47 378.394 476 378.394C476.53 378.394 477.039 378.605 477.414 378.98C477.789 379.355 478 379.864 478 380.394V498.394C478 498.924 477.789 499.433 477.414 499.808C477.039 500.183 476.53 500.394 476 500.394Z" fill="#CCCCCC"/>
<path d="M446 606.394C445.47 606.394 444.961 606.183 444.586 605.808C444.211 605.433 444 604.924 444 604.394V518.394C444 517.864 444.211 517.355 444.586 516.98C444.961 516.605 445.47 516.394 446 516.394C446.53 516.394 447.039 516.605 447.414 516.98C447.789 517.355 448 517.864 448 518.394V604.394C448 604.924 447.789 605.433 447.414 605.808C447.039 606.183 446.53 606.394 446 606.394V606.394Z" fill="#CCCCCC"/>
<path d="M523 535.394C522.47 535.394 521.961 535.183 521.586 534.808C521.211 534.433 521 533.924 521 533.394V415.394C521 414.864 521.211 414.355 521.586 413.98C521.961 413.605 522.47 413.394 523 413.394C523.53 413.394 524.039 413.605 524.414 413.98C524.789 414.355 525 414.864 525 415.394V533.394C525 533.924 524.789 534.433 524.414 534.808C524.039 535.183 523.53 535.394 523 535.394Z" fill="#CCCCCC"/>
<path d="M494 620.394C493.47 620.394 492.961 620.183 492.586 619.808C492.211 619.433 492 618.924 492 618.394V570.394C492 569.864 492.211 569.355 492.586 568.98C492.961 568.605 493.47 568.394 494 568.394C494.53 568.394 495.039 568.605 495.414 568.98C495.789 569.355 496 569.864 496 570.394V618.394C496 618.924 495.789 619.433 495.414 619.808C495.039 620.183 494.53 620.394 494 620.394V620.394Z" fill="#CCCCCC"/>
<path d="M535 374.394C534.47 374.394 533.961 374.183 533.586 373.808C533.211 373.433 533 372.924 533 372.394V324.394C533 323.864 533.211 323.355 533.586 322.98C533.961 322.605 534.47 322.394 535 322.394C535.53 322.394 536.039 322.605 536.414 322.98C536.789 323.355 537 323.864 537 324.394V372.394C537 372.924 536.789 373.433 536.414 373.808C536.039 374.183 535.53 374.394 535 374.394V374.394Z" fill="#CCCCCC"/>
<path d="M435 395.394C434.47 395.394 433.961 395.183 433.586 394.808C433.211 394.433 433 393.924 433 393.394V345.394C433 344.864 433.211 344.355 433.586 343.98C433.961 343.605 434.47 343.394 435 343.394C435.53 343.394 436.039 343.605 436.414 343.98C436.789 344.355 437 344.864 437 345.394V393.394C437 393.924 436.789 394.433 436.414 394.808C436.039 395.183 435.53 395.394 435 395.394V395.394Z" fill="#CCCCCC"/>
<path d="M609 400.394C608.47 400.394 607.961 400.183 607.586 399.808C607.211 399.433 607 398.924 607 398.394V350.394C607 349.864 607.211 349.355 607.586 348.98C607.961 348.605 608.47 348.394 609 348.394C609.53 348.394 610.039 348.605 610.414 348.98C610.789 349.355 611 349.864 611 350.394V398.394C611 398.924 610.789 399.433 610.414 399.808C610.039 400.183 609.53 400.394 609 400.394Z" fill="#CCCCCC"/>
<path d="M605 550.394C604.47 550.394 603.961 550.183 603.586 549.808C603.211 549.433 603 548.924 603 548.394V490.394C603 489.864 603.211 489.355 603.586 488.98C603.961 488.605 604.47 488.394 605 488.394C605.53 488.394 606.039 488.605 606.414 488.98C606.789 489.355 607 489.864 607 490.394V548.394C607 548.924 606.789 549.433 606.414 549.808C606.039 550.183 605.53 550.394 605 550.394Z" fill="#CCCCCC"/>
<path d="M565 601.394C564.47 601.394 563.961 601.183 563.586 600.808C563.211 600.433 563 599.924 563 599.394V513.394C563 512.864 563.211 512.355 563.586 511.98C563.961 511.605 564.47 511.394 565 511.394C565.53 511.394 566.039 511.605 566.414 511.98C566.789 512.355 567 512.864 567 513.394V599.394C567 599.924 566.789 600.433 566.414 600.808C566.039 601.183 565.53 601.394 565 601.394Z" fill="#CCCCCC"/>
<path d="M573 454.394C572.47 454.394 571.961 454.183 571.586 453.808C571.211 453.433 571 452.924 571 452.394V334.394C571 333.864 571.211 333.355 571.586 332.98C571.961 332.605 572.47 332.394 573 332.394C573.53 332.394 574.039 332.605 574.414 332.98C574.789 333.355 575 333.864 575 334.394V452.394C575 452.924 574.789 453.433 574.414 453.808C574.039 454.183 573.53 454.394 573 454.394Z" fill="#CCCCCC"/>
<path d="M818.193 705.491C821.056 703.094 817.187 693.759 809.553 684.641C801.918 675.522 793.408 670.073 790.545 672.47C787.683 674.866 791.551 684.202 799.186 693.32C806.821 702.439 815.331 707.888 818.193 705.491Z" fill="#2F2E41"/>
<path d="M799.42 695.121C806.941 672.557 794.746 648.167 772.181 640.645C749.617 633.124 725.227 645.318 717.705 667.883C710.183 690.448 722.378 714.838 744.943 722.36C767.508 729.881 791.898 717.686 799.42 695.121Z" fill="#2F2E41"/>
<path d="M776.791 715.302H763.707V738.744H776.791V715.302Z" fill="#2F2E41"/>
<path d="M750.624 715.302H737.54V738.744H750.624V715.302Z" fill="#2F2E41"/>
<path d="M765.888 743.105C771.91 743.105 776.791 741.274 776.791 739.016C776.791 736.758 771.91 734.928 765.888 734.928C759.866 734.928 754.985 736.758 754.985 739.016C754.985 741.274 759.866 743.105 765.888 743.105Z" fill="#2F2E41"/>
<path d="M739.721 742.56C745.742 742.56 750.624 740.729 750.624 738.471C750.624 736.213 745.742 734.382 739.721 734.382C733.699 734.382 728.817 736.213 728.817 738.471C728.817 740.729 733.699 742.56 739.721 742.56Z" fill="#2F2E41"/>
<path d="M745.039 627.365C748.885 611.878 765.86 602.765 782.954 607.009C800.048 611.254 810.788 627.25 806.943 642.737C803.097 658.224 790.339 658.274 773.245 654.029C756.15 649.784 741.194 642.853 745.039 627.365Z" fill="#CCCCCC"/>
<path d="M729.51 670.747C731.11 667.373 723.696 660.507 712.951 655.411C702.206 650.315 692.198 648.918 690.598 652.291C688.998 655.664 696.412 662.53 707.157 667.627C717.903 672.723 727.91 674.12 729.51 670.747Z" fill="#2F2E41"/>
<path d="M752.124 686.773C760.054 686.773 766.482 680.345 766.482 672.415C766.482 664.485 760.054 658.056 752.124 658.056C744.194 658.056 737.765 664.485 737.765 672.415C737.765 680.345 744.194 686.773 752.124 686.773Z" fill="white"/>
<path d="M746.222 672.054C748.866 672.054 751.008 669.911 751.008 667.268C751.008 664.625 748.866 662.482 746.222 662.482C743.579 662.482 741.436 664.625 741.436 667.268C741.436 669.911 743.579 672.054 746.222 672.054Z" fill="#3F3D56"/>
<path d="M752 708.394C755.314 708.394 758 705.708 758 702.394C758 699.08 755.314 696.394 752 696.394C748.686 696.394 746 699.08 746 702.394C746 705.708 748.686 708.394 752 708.394Z" fill="white"/>
<path d="M115.56 833.56C117.453 833.56 119.267 833.293 121 832.76C122.76 832.2 124.293 831.28 125.6 830C126.933 828.72 127.987 827 128.76 824.84C129.56 822.653 129.96 819.947 129.96 816.72C129.96 811.893 128.773 808.467 126.4 806.44C124.027 804.387 120.427 803.36 115.6 803.36C113.76 803.36 112.227 803.44 111 803.6C109.8 803.733 108.72 803.813 107.76 803.84V833.28C109.067 833.36 110.293 833.427 111.44 833.48C112.613 833.533 113.987 833.56 115.56 833.56ZM119.48 857.92V862H90.36V857.92L96.84 856.76C97.48 856.653 97.9733 856.387 98.32 855.96C98.6667 855.533 98.84 855.013 98.84 854.4V807.28C98.84 806.773 98.68 806.293 98.36 805.84C98.04 805.387 97.6133 805.107 97.08 805L90.36 803.68V799.52H103.36C104.587 799.52 105.693 799.493 106.68 799.44C107.693 799.387 108.707 799.32 109.72 799.24C110.76 799.16 111.893 799.093 113.12 799.04C114.373 798.987 115.867 798.96 117.6 798.96C121.707 798.96 125.16 799.36 127.96 800.16C130.76 800.96 132.987 802.107 134.64 803.6C136.32 805.093 137.507 806.947 138.2 809.16C138.92 811.373 139.28 813.867 139.28 816.64C139.28 820 138.693 823.027 137.52 825.72C136.347 828.387 134.707 830.64 132.6 832.48C130.52 834.293 128.013 835.68 125.08 836.64C122.173 837.6 119 838.08 115.56 838.08C114.253 838.08 112.947 838.053 111.64 838C110.36 837.92 109.067 837.853 107.76 837.8V854.4C107.76 854.987 107.933 855.493 108.28 855.92C108.653 856.32 109.133 856.547 109.72 856.6L119.48 857.92ZM162.196 857.28C164.116 857.28 166.063 856.92 168.036 856.2C170.01 855.453 171.69 854.507 173.076 853.36V842.68L165.436 843.36C162.21 843.627 159.73 844.36 157.996 845.56C156.29 846.76 155.436 848.587 155.436 851.04C155.436 853.013 155.983 854.547 157.076 855.64C158.196 856.733 159.903 857.28 162.196 857.28ZM180.676 862.68C178.756 862.68 177.183 862.2 175.956 861.24C174.73 860.253 173.876 858.827 173.396 856.96C171.716 858.773 169.623 860.227 167.116 861.32C164.61 862.387 161.93 862.92 159.076 862.92C157.263 862.92 155.57 862.68 153.996 862.2C152.423 861.72 151.063 861.027 149.916 860.12C148.796 859.187 147.903 858.04 147.236 856.68C146.596 855.293 146.276 853.72 146.276 851.96C146.276 849.64 146.81 847.693 147.876 846.12C148.943 844.547 150.316 843.28 151.996 842.32C153.703 841.36 155.596 840.64 157.676 840.16C159.783 839.68 161.85 839.36 163.876 839.2L173.076 838.44V833.04C173.076 828.933 172.25 826.04 170.596 824.36C168.97 822.68 166.476 821.84 163.116 821.84C160.583 821.84 158.183 822.267 155.916 823.12C153.676 823.947 151.596 825.253 149.676 827.04L147.636 825C148.143 823.48 148.97 822.133 150.116 820.96C151.263 819.76 152.61 818.76 154.156 817.96C155.73 817.16 157.49 816.56 159.436 816.16C161.383 815.733 163.41 815.52 165.516 815.52C170.823 815.52 174.81 816.867 177.476 819.56C180.143 822.227 181.476 826.32 181.476 831.84V854.48C181.476 855.333 181.663 855.96 182.036 856.36C182.436 856.733 183.01 856.96 183.756 857.04L188.356 857.44V861.24C187.69 861.48 186.556 861.773 184.956 862.12C183.383 862.493 181.956 862.68 180.676 862.68ZM204.749 830.88C204.749 834.747 205.536 837.707 207.109 839.76C208.709 841.787 211.256 842.8 214.749 842.8C217.762 842.8 220.056 841.907 221.629 840.12C223.229 838.333 224.029 835.413 224.029 831.36C224.029 827.307 223.229 824.347 221.629 822.48C220.029 820.613 217.536 819.68 214.149 819.68C211.536 819.68 209.309 820.44 207.469 821.96C205.656 823.48 204.749 826.453 204.749 830.88ZM238.469 866.88C238.469 869.493 237.842 871.867 236.589 874C235.362 876.133 233.642 877.933 231.429 879.4C229.216 880.893 226.562 882.04 223.469 882.84C220.402 883.667 217.042 884.08 213.389 884.08C207.069 884.08 202.309 882.92 199.109 880.6C195.909 878.28 194.309 875.227 194.309 871.44C194.309 868.747 195.029 866.507 196.469 864.72C197.936 862.96 199.789 861.547 202.029 860.48C200.722 859.813 199.736 858.933 199.069 857.84C198.402 856.72 198.069 855.4 198.069 853.88C198.069 851.72 198.656 849.973 199.829 848.64C201.002 847.28 202.402 846.187 204.029 845.36C201.496 844.16 199.509 842.413 198.069 840.12C196.656 837.827 195.949 835.053 195.949 831.8C195.949 829.027 196.456 826.6 197.469 824.52C198.482 822.413 199.842 820.693 201.549 819.36C203.282 818 205.322 816.987 207.669 816.32C210.016 815.627 212.509 815.28 215.149 815.28C217.736 815.28 220.096 815.613 222.229 816.28C224.362 816.92 226.189 817.867 227.709 819.12C229.016 817.893 230.296 816.947 231.549 816.28C232.802 815.587 234.082 815.24 235.389 815.24C236.056 815.24 236.802 815.32 237.629 815.48C238.456 815.613 239.202 815.773 239.869 815.96V822.44H230.629C231.296 823.56 231.816 824.813 232.189 826.2C232.562 827.56 232.749 829.04 232.749 830.64C232.749 835.68 231.016 839.707 227.549 842.72C224.082 845.733 219.442 847.24 213.629 847.24C212.536 847.24 211.469 847.187 210.429 847.08C209.389 846.947 208.402 846.773 207.469 846.56C206.722 847.093 206.136 847.733 205.709 848.48C205.282 849.2 205.069 850.053 205.069 851.04C205.069 852.667 205.762 853.827 207.149 854.52C208.562 855.187 210.856 855.52 214.029 855.52H223.869C228.696 855.52 232.336 856.52 234.789 858.52C237.242 860.52 238.469 863.307 238.469 866.88ZM214.989 879.36C219.416 879.36 223.029 878.453 225.829 876.64C228.656 874.853 230.069 872.133 230.069 868.48C230.069 866.507 229.482 864.96 228.309 863.84C227.162 862.72 224.882 862.16 221.469 862.16H211.189C210.202 862.16 209.269 862.12 208.389 862.04C207.509 861.987 206.696 861.893 205.949 861.76C205.016 862.747 204.242 863.907 203.629 865.24C203.016 866.6 202.709 868.2 202.709 870.04C202.709 872.707 203.576 874.92 205.309 876.68C207.069 878.467 210.296 879.36 214.989 879.36ZM261.362 816.8V854.64C261.362 855.36 261.548 855.933 261.922 856.36C262.295 856.787 262.828 857.053 263.522 857.16L268.442 857.92V862H245.682V857.92L250.602 857.16C251.295 857.053 251.828 856.787 252.202 856.36C252.602 855.933 252.802 855.373 252.802 854.68V824.88C252.802 824.16 252.615 823.587 252.242 823.16C251.895 822.733 251.375 822.467 250.682 822.36L245.122 821.56V817.64C247.415 816.947 249.908 816.44 252.602 816.12C255.295 815.773 257.788 815.573 260.082 815.52L261.362 816.8ZM262.002 803.12C262.002 804.827 261.455 806.227 260.362 807.32C259.268 808.387 257.842 808.92 256.082 808.92C254.322 808.92 252.895 808.387 251.802 807.32C250.708 806.227 250.162 804.827 250.162 803.12C250.162 801.44 250.708 800.067 251.802 799C252.895 797.933 254.322 797.4 256.082 797.4C257.842 797.4 259.268 797.933 260.362 799C261.455 800.067 262.002 801.44 262.002 803.12ZM297.315 857.92V862H275.115V857.92L280.035 857.16C280.729 857.053 281.262 856.787 281.635 856.36C282.035 855.933 282.235 855.373 282.235 854.68V824.88C282.235 824.16 282.049 823.587 281.675 823.16C281.329 822.733 280.809 822.467 280.115 822.36L274.555 821.56V817.64C276.715 816.973 279.022 816.467 281.475 816.12C283.955 815.747 286.275 815.547 288.435 815.52L289.835 816.92L290.435 821.84C292.649 819.493 295.142 817.84 297.915 816.88C300.689 815.92 303.502 815.44 306.355 815.44C311.662 815.44 315.275 816.987 317.195 820.08C319.115 823.173 320.075 827.48 320.075 833V854.72C320.075 855.413 320.262 855.973 320.635 856.4C321.035 856.8 321.569 857.053 322.235 857.16L327.155 857.92V862H304.995V857.92L309.355 857.16C309.969 857.053 310.475 856.813 310.875 856.44C311.302 856.04 311.515 855.467 311.515 854.72V834.56C311.515 830.16 310.915 826.88 309.715 824.72C308.515 822.533 306.182 821.44 302.715 821.44C300.609 821.44 298.529 821.76 296.475 822.4C294.422 823.04 292.529 824.013 290.795 825.32V854.68C290.795 855.373 290.982 855.933 291.355 856.36C291.729 856.76 292.249 857.027 292.915 857.16L297.315 857.92ZM349.218 857.28C351.138 857.28 353.085 856.92 355.058 856.2C357.031 855.453 358.711 854.507 360.098 853.36V842.68L352.458 843.36C349.231 843.627 346.751 844.36 345.018 845.56C343.311 846.76 342.458 848.587 342.458 851.04C342.458 853.013 343.005 854.547 344.098 855.64C345.218 856.733 346.925 857.28 349.218 857.28ZM367.698 862.68C365.778 862.68 364.205 862.2 362.978 861.24C361.751 860.253 360.898 858.827 360.418 856.96C358.738 858.773 356.645 860.227 354.138 861.32C351.631 862.387 348.951 862.92 346.098 862.92C344.285 862.92 342.591 862.68 341.018 862.2C339.445 861.72 338.085 861.027 336.938 860.12C335.818 859.187 334.925 858.04 334.258 856.68C333.618 855.293 333.298 853.72 333.298 851.96C333.298 849.64 333.831 847.693 334.898 846.12C335.965 844.547 337.338 843.28 339.018 842.32C340.725 841.36 342.618 840.64 344.698 840.16C346.805 839.68 348.871 839.36 350.898 839.2L360.098 838.44V833.04C360.098 828.933 359.271 826.04 357.618 824.36C355.991 822.68 353.498 821.84 350.138 821.84C347.605 821.84 345.205 822.267 342.938 823.12C340.698 823.947 338.618 825.253 336.698 827.04L334.658 825C335.165 823.48 335.991 822.133 337.138 820.96C338.285 819.76 339.631 818.76 341.178 817.96C342.751 817.16 344.511 816.56 346.458 816.16C348.405 815.733 350.431 815.52 352.538 815.52C357.845 815.52 361.831 816.867 364.498 819.56C367.165 822.227 368.498 826.32 368.498 831.84V854.48C368.498 855.333 368.685 855.96 369.058 856.36C369.458 856.733 370.031 856.96 370.778 857.04L375.378 857.44V861.24C374.711 861.48 373.578 861.773 371.978 862.12C370.405 862.493 368.978 862.68 367.698 862.68ZM427.511 857.92V862H405.311V857.92L410.231 857.16C410.924 857.053 411.457 856.787 411.831 856.36C412.231 855.933 412.431 855.373 412.431 854.68V824.88C412.431 824.16 412.244 823.587 411.871 823.16C411.524 822.733 411.004 822.467 410.311 822.36L404.751 821.56V817.64C406.911 816.973 409.217 816.467 411.671 816.12C414.151 815.747 416.471 815.547 418.631 815.52L420.031 816.92L420.631 821.84C422.844 819.493 425.337 817.84 428.111 816.88C430.884 815.92 433.697 815.44 436.551 815.44C441.857 815.44 445.471 816.987 447.391 820.08C449.311 823.173 450.271 827.48 450.271 833V854.72C450.271 855.413 450.457 855.973 450.831 856.4C451.231 856.8 451.764 857.053 452.431 857.16L457.351 857.92V862H435.191V857.92L439.551 857.16C440.164 857.053 440.671 856.813 441.071 856.44C441.497 856.04 441.711 855.467 441.711 854.72V834.56C441.711 830.16 441.111 826.88 439.911 824.72C438.711 822.533 436.377 821.44 432.911 821.44C430.804 821.44 428.724 821.76 426.671 822.4C424.617 823.04 422.724 824.013 420.991 825.32V854.68C420.991 855.373 421.177 855.933 421.551 856.36C421.924 856.76 422.444 857.027 423.111 857.16L427.511 857.92ZM479.413 857.28C481.333 857.28 483.28 856.92 485.253 856.2C487.227 855.453 488.907 854.507 490.293 853.36V842.68L482.653 843.36C479.427 843.627 476.947 844.36 475.213 845.56C473.507 846.76 472.653 848.587 472.653 851.04C472.653 853.013 473.2 854.547 474.293 855.64C475.413 856.733 477.12 857.28 479.413 857.28ZM497.893 862.68C495.973 862.68 494.4 862.2 493.173 861.24C491.947 860.253 491.093 858.827 490.613 856.96C488.933 858.773 486.84 860.227 484.333 861.32C481.827 862.387 479.147 862.92 476.293 862.92C474.48 862.92 472.787 862.68 471.213 862.2C469.64 861.72 468.28 861.027 467.133 860.12C466.013 859.187 465.12 858.04 464.453 856.68C463.813 855.293 463.493 853.72 463.493 851.96C463.493 849.64 464.027 847.693 465.093 846.12C466.16 844.547 467.533 843.28 469.213 842.32C470.92 841.36 472.813 840.64 474.893 840.16C477 839.68 479.067 839.36 481.093 839.2L490.293 838.44V833.04C490.293 828.933 489.467 826.04 487.813 824.36C486.187 822.68 483.693 821.84 480.333 821.84C477.8 821.84 475.4 822.267 473.133 823.12C470.893 823.947 468.813 825.253 466.893 827.04L464.853 825C465.36 823.48 466.187 822.133 467.333 820.96C468.48 819.76 469.827 818.76 471.373 817.96C472.947 817.16 474.707 816.56 476.653 816.16C478.6 815.733 480.627 815.52 482.733 815.52C488.04 815.52 492.027 816.867 494.693 819.56C497.36 822.227 498.693 826.32 498.693 831.84V854.48C498.693 855.333 498.88 855.96 499.253 856.36C499.653 856.733 500.227 856.96 500.973 857.04L505.573 857.44V861.24C504.907 861.48 503.773 861.773 502.173 862.12C500.6 862.493 499.173 862.68 497.893 862.68ZM470.893 811.64L467.813 808.92L478.893 793.48L485.573 792.84L497.893 808.68L494.653 811.56L482.253 800.48L470.893 811.64ZM512.366 839.4C512.366 835.213 512.939 831.587 514.086 828.52C515.259 825.453 516.832 822.947 518.806 821C520.779 819.053 523.099 817.613 525.766 816.68C528.459 815.747 531.312 815.28 534.326 815.28C537.872 815.28 540.939 815.853 543.526 817C546.139 818.12 548.272 819.707 549.926 821.76C551.606 823.787 552.846 826.267 553.646 829.2C554.446 832.107 554.846 835.333 554.846 838.88C554.846 843.067 554.259 846.693 553.086 849.76C551.939 852.8 550.379 855.293 548.406 857.24C546.432 859.187 544.099 860.627 541.406 861.56C538.712 862.493 535.859 862.96 532.846 862.96C529.299 862.96 526.219 862.4 523.606 861.28C521.019 860.133 518.899 858.547 517.246 856.52C515.592 854.467 514.366 851.987 513.566 849.08C512.766 846.147 512.366 842.92 512.366 839.4ZM545.366 839.68C545.366 836.667 545.166 833.933 544.766 831.48C544.392 829.027 543.739 826.947 542.806 825.24C541.872 823.507 540.632 822.173 539.086 821.24C537.539 820.307 535.606 819.84 533.286 819.84C529.392 819.84 526.499 821.32 524.606 824.28C522.739 827.24 521.806 832 521.806 838.56C521.806 841.547 521.992 844.267 522.366 846.72C522.766 849.173 523.419 851.267 524.326 853C525.259 854.707 526.499 856.04 528.046 857C529.619 857.933 531.579 858.4 533.926 858.4C537.792 858.4 540.659 856.92 542.526 853.96C544.419 850.973 545.366 846.213 545.366 839.68ZM607.681 819.84C604.801 819.84 602.414 820.84 600.521 822.84C598.628 824.813 597.401 827.973 596.841 832.32H616.961C616.988 832.027 617.014 831.733 617.041 831.44C617.068 831.12 617.081 830.787 617.081 830.44C617.081 827.32 616.268 824.773 614.641 822.8C613.014 820.827 610.694 819.84 607.681 819.84ZM625.481 852.08C624.414 855.307 622.334 857.933 619.241 859.96C616.148 861.96 612.308 862.96 607.721 862.96C604.308 862.96 601.321 862.387 598.761 861.24C596.228 860.067 594.121 858.453 592.441 856.4C590.788 854.347 589.548 851.893 588.721 849.04C587.894 846.187 587.481 843.08 587.481 839.72C587.481 835.907 587.988 832.48 589.001 829.44C590.014 826.4 591.454 823.84 593.321 821.76C595.188 819.653 597.441 818.053 600.081 816.96C602.721 815.84 605.654 815.28 608.881 815.28C611.361 815.28 613.628 815.627 615.681 816.32C617.734 816.987 619.494 817.973 620.961 819.28C622.428 820.587 623.561 822.227 624.361 824.2C625.188 826.173 625.601 828.453 625.601 831.04C625.601 831.787 625.561 832.693 625.481 833.76C625.401 834.8 625.294 835.733 625.161 836.56H596.521C596.521 836.747 596.521 836.947 596.521 837.16C596.521 837.373 596.521 837.587 596.521 837.8C596.521 841.4 596.868 844.44 597.561 846.92C598.254 849.373 599.201 851.347 600.401 852.84C601.601 854.307 603.028 855.36 604.681 856C606.334 856.64 608.121 856.96 610.041 856.96C612.654 856.96 615.068 856.373 617.281 855.2C619.521 854.027 621.294 852.44 622.601 850.44L625.481 852.08ZM656.319 857.92V862H634.119V857.92L639.039 857.16C639.733 857.053 640.266 856.787 640.639 856.36C641.039 855.933 641.239 855.373 641.239 854.68V824.88C641.239 824.16 641.053 823.587 640.679 823.16C640.333 822.733 639.813 822.467 639.119 822.36L633.559 821.56V817.64C635.719 816.973 638.026 816.467 640.479 816.12C642.959 815.747 645.279 815.547 647.439 815.52L648.839 816.92L649.439 821.84C651.653 819.493 654.146 817.84 656.919 816.88C659.693 815.92 662.506 815.44 665.359 815.44C670.666 815.44 674.279 816.987 676.199 820.08C678.119 823.173 679.079 827.48 679.079 833V854.72C679.079 855.413 679.266 855.973 679.639 856.4C680.039 856.8 680.573 857.053 681.239 857.16L686.159 857.92V862H663.999V857.92L668.359 857.16C668.973 857.053 669.479 856.813 669.879 856.44C670.306 856.04 670.519 855.467 670.519 854.72V834.56C670.519 830.16 669.919 826.88 668.719 824.72C667.519 822.533 665.186 821.44 661.719 821.44C659.613 821.44 657.533 821.76 655.479 822.4C653.426 823.04 651.533 824.013 649.799 825.32V854.68C649.799 855.373 649.986 855.933 650.359 856.36C650.733 856.76 651.253 857.027 651.919 857.16L656.319 857.92ZM692.862 839.76C692.862 836.24 693.329 832.987 694.262 830C695.222 826.987 696.622 824.4 698.462 822.24C700.302 820.053 702.609 818.347 705.382 817.12C708.155 815.893 711.342 815.28 714.942 815.28C717.475 815.28 720.035 815.56 722.622 816.12C725.235 816.68 727.329 817.36 728.902 818.16C729.035 820.24 729.022 822.493 728.862 824.92C728.702 827.32 728.449 829.56 728.102 831.64H723.702L722.022 824.96C721.835 824.213 721.635 823.587 721.422 823.08C721.209 822.547 720.849 822.067 720.342 821.64C719.675 821.107 718.795 820.667 717.702 820.32C716.635 819.947 715.422 819.76 714.062 819.76C710.329 819.76 707.435 821.267 705.382 824.28C703.329 827.293 702.302 831.84 702.302 837.92C702.302 844.293 703.449 849.067 705.742 852.24C708.062 855.413 711.315 857 715.502 857C718.009 857 720.249 856.507 722.222 855.52C724.195 854.533 725.795 853.373 727.022 852.04L729.462 854.24C728.182 856.88 726.102 859 723.222 860.6C720.369 862.173 716.982 862.96 713.062 862.96C709.729 862.96 706.782 862.387 704.222 861.24C701.689 860.067 699.582 858.453 697.902 856.4C696.249 854.347 694.995 851.893 694.142 849.04C693.289 846.187 692.862 843.093 692.862 839.76ZM738.059 839.4C738.059 835.213 738.632 831.587 739.779 828.52C740.952 825.453 742.526 822.947 744.499 821C746.472 819.053 748.792 817.613 751.459 816.68C754.152 815.747 757.006 815.28 760.019 815.28C763.566 815.28 766.632 815.853 769.219 817C771.832 818.12 773.966 819.707 775.619 821.76C777.299 823.787 778.539 826.267 779.339 829.2C780.139 832.107 780.539 835.333 780.539 838.88C780.539 843.067 779.952 846.693 778.779 849.76C777.632 852.8 776.072 855.293 774.099 857.24C772.126 859.187 769.792 860.627 767.099 861.56C764.406 862.493 761.552 862.96 758.539 862.96C754.992 862.96 751.912 862.4 749.299 861.28C746.712 860.133 744.592 858.547 742.939 856.52C741.286 854.467 740.059 851.987 739.259 849.08C738.459 846.147 738.059 842.92 738.059 839.4ZM771.059 839.68C771.059 836.667 770.859 833.933 770.459 831.48C770.086 829.027 769.432 826.947 768.499 825.24C767.566 823.507 766.326 822.173 764.779 821.24C763.232 820.307 761.299 819.84 758.979 819.84C755.086 819.84 752.192 821.32 750.299 824.28C748.432 827.24 747.499 832 747.499 838.56C747.499 841.547 747.686 844.267 748.059 846.72C748.459 849.173 749.112 851.267 750.019 853C750.952 854.707 752.192 856.04 753.739 857C755.312 857.933 757.272 858.4 759.619 858.4C763.486 858.4 766.352 856.92 768.219 853.96C770.112 850.973 771.059 846.213 771.059 839.68ZM811.114 857.92V862H788.914V857.92L793.834 857.16C794.527 857.053 795.061 856.787 795.434 856.36C795.834 855.933 796.034 855.373 796.034 854.68V824.88C796.034 824.16 795.847 823.587 795.474 823.16C795.127 822.733 794.607 822.467 793.914 822.36L788.354 821.56V817.64C790.514 816.973 792.821 816.467 795.274 816.12C797.754 815.747 800.074 815.547 802.234 815.52L803.634 816.92L804.234 821.84C806.447 819.493 808.941 817.84 811.714 816.88C814.487 815.92 817.301 815.44 820.154 815.44C825.461 815.44 829.074 816.987 830.994 820.08C832.914 823.173 833.874 827.48 833.874 833V854.72C833.874 855.413 834.061 855.973 834.434 856.4C834.834 856.8 835.367 857.053 836.034 857.16L840.954 857.92V862H818.794V857.92L823.154 857.16C823.767 857.053 824.274 856.813 824.674 856.44C825.101 856.04 825.314 855.467 825.314 854.72V834.56C825.314 830.16 824.714 826.88 823.514 824.72C822.314 822.533 819.981 821.44 816.514 821.44C814.407 821.44 812.327 821.76 810.274 822.4C808.221 823.04 806.327 824.013 804.594 825.32V854.68C804.594 855.373 804.781 855.933 805.154 856.36C805.527 856.76 806.047 857.027 806.714 857.16L811.114 857.92ZM852.657 850.68V822.32L845.737 821.44V817.64L850.817 816.96C851.537 816.853 852.083 816.613 852.457 816.24C852.83 815.867 853.11 815.347 853.297 814.68L856.137 802.92H861.097L861.217 816.52H876.177V822H861.257V847.84C861.257 851.307 861.843 853.627 863.017 854.8C864.217 855.973 865.83 856.56 867.857 856.56C869.537 856.56 871.083 856.253 872.497 855.64C873.937 855.027 875.177 854.147 876.217 853L878.697 855.28C877.497 857.76 875.643 859.653 873.137 860.96C870.657 862.24 867.91 862.88 864.897 862.88C863.27 862.88 861.71 862.693 860.217 862.32C858.723 861.947 857.417 861.307 856.297 860.4C855.203 859.467 854.323 858.213 853.657 856.64C852.99 855.067 852.657 853.08 852.657 850.68ZM909.768 858.04V862H883.768V857.92L888.688 857.16C889.381 857.053 889.914 856.8 890.288 856.4C890.688 855.973 890.888 855.413 890.888 854.72V825.08C890.888 824.28 890.714 823.653 890.368 823.2C890.048 822.747 889.501 822.467 888.728 822.36L883.208 821.56V817.64C885.314 817 887.594 816.493 890.048 816.12C892.501 815.747 894.768 815.547 896.848 815.52L898.208 816.8L899.128 824.12C899.954 822.973 900.941 821.867 902.088 820.8C903.234 819.733 904.461 818.8 905.768 818C907.074 817.173 908.448 816.52 909.888 816.04C911.354 815.533 912.808 815.28 914.248 815.28C915.074 815.28 916.021 815.373 917.088 815.56C918.154 815.747 919.021 816.013 919.688 816.36C919.874 818.6 919.874 821.133 919.688 823.96C919.528 826.787 919.208 829.36 918.728 831.68H914.528L913.368 825.48C913.181 824.6 912.874 823.987 912.448 823.64C912.048 823.293 911.448 823.12 910.648 823.12C908.781 823.093 906.861 823.467 904.888 824.24C902.941 825.013 901.128 826.24 899.448 827.92V854.72C899.448 855.44 899.634 856.013 900.008 856.44C900.408 856.84 900.968 857.08 901.688 857.16L909.768 858.04ZM941.22 857.28C943.14 857.28 945.087 856.92 947.06 856.2C949.033 855.453 950.713 854.507 952.1 853.36V842.68L944.46 843.36C941.233 843.627 938.753 844.36 937.02 845.56C935.313 846.76 934.46 848.587 934.46 851.04C934.46 853.013 935.007 854.547 936.1 855.64C937.22 856.733 938.927 857.28 941.22 857.28ZM959.7 862.68C957.78 862.68 956.207 862.2 954.98 861.24C953.753 860.253 952.9 858.827 952.42 856.96C950.74 858.773 948.647 860.227 946.14 861.32C943.633 862.387 940.953 862.92 938.1 862.92C936.287 862.92 934.593 862.68 933.02 862.2C931.447 861.72 930.087 861.027 928.94 860.12C927.82 859.187 926.927 858.04 926.26 856.68C925.62 855.293 925.3 853.72 925.3 851.96C925.3 849.64 925.833 847.693 926.9 846.12C927.967 844.547 929.34 843.28 931.02 842.32C932.727 841.36 934.62 840.64 936.7 840.16C938.807 839.68 940.873 839.36 942.9 839.2L952.1 838.44V833.04C952.1 828.933 951.273 826.04 949.62 824.36C947.993 822.68 945.5 821.84 942.14 821.84C939.607 821.84 937.207 822.267 934.94 823.12C932.7 823.947 930.62 825.253 928.7 827.04L926.66 825C927.167 823.48 927.993 822.133 929.14 820.96C930.287 819.76 931.633 818.76 933.18 817.96C934.753 817.16 936.513 816.56 938.46 816.16C940.407 815.733 942.433 815.52 944.54 815.52C949.847 815.52 953.833 816.867 956.5 819.56C959.167 822.227 960.5 826.32 960.5 831.84V854.48C960.5 855.333 960.687 855.96 961.06 856.36C961.46 856.733 962.033 856.96 962.78 857.04L967.38 857.44V861.24C966.713 861.48 965.58 861.773 963.98 862.12C962.407 862.493 960.98 862.68 959.7 862.68ZM995.292 857.08C997.292 857.08 999.172 856.747 1000.93 856.08C1002.69 855.413 1004.25 854.52 1005.61 853.4V821.96C1004.65 821.4 1003.4 820.92 1001.85 820.52C1000.33 820.12 998.732 819.92 997.052 819.92C995.186 819.92 993.412 820.24 991.732 820.88C990.079 821.493 988.639 822.533 987.412 824C986.186 825.467 985.212 827.44 984.492 829.92C983.772 832.4 983.412 835.48 983.412 839.16C983.412 842.627 983.732 845.52 984.372 847.84C985.012 850.133 985.866 851.973 986.932 853.36C988.026 854.72 989.292 855.68 990.732 856.24C992.172 856.8 993.692 857.08 995.292 857.08ZM1013.37 862.68C1011.21 862.68 1009.55 862.12 1008.37 861C1007.23 859.88 1006.44 858.48 1006.01 856.8C1004.47 858.507 1002.53 859.96 1000.21 861.16C997.919 862.333 995.239 862.92 992.172 862.92C989.746 862.92 987.426 862.493 985.212 861.64C983.026 860.787 981.119 859.467 979.492 857.68C977.866 855.867 976.572 853.533 975.612 850.68C974.652 847.827 974.172 844.427 974.172 840.48C974.172 836.24 974.732 832.533 975.852 829.36C976.999 826.187 978.586 823.56 980.612 821.48C982.666 819.4 985.132 817.853 988.012 816.84C990.892 815.8 994.066 815.28 997.532 815.28C999.026 815.28 1000.47 815.373 1001.85 815.56C1003.24 815.747 1004.49 815.973 1005.61 816.24V799.32C1005.61 798.6 1005.41 798.04 1005.01 797.64C1004.64 797.24 1004.12 796.987 1003.45 796.88L997.372 796.04V792.36C998.519 792.013 999.759 791.707 1001.09 791.44C1002.43 791.173 1003.77 790.947 1005.13 790.76C1006.52 790.573 1007.88 790.427 1009.21 790.32C1010.55 790.187 1011.79 790.107 1012.93 790.08L1014.17 791.36V854.44C1014.17 855.373 1014.39 856.027 1014.81 856.4C1015.27 856.747 1015.83 856.96 1016.49 857.04L1021.09 857.44V861.24C1020.19 861.533 1018.99 861.84 1017.49 862.16C1016 862.507 1014.63 862.68 1013.37 862.68ZM1043.7 857.28C1045.62 857.28 1047.57 856.92 1049.54 856.2C1051.51 855.453 1053.19 854.507 1054.58 853.36V842.68L1046.94 843.36C1043.71 843.627 1041.23 844.36 1039.5 845.56C1037.79 846.76 1036.94 848.587 1036.94 851.04C1036.94 853.013 1037.49 854.547 1038.58 855.64C1039.7 856.733 1041.41 857.28 1043.7 857.28ZM1062.18 862.68C1060.26 862.68 1058.69 862.2 1057.46 861.24C1056.23 860.253 1055.38 858.827 1054.9 856.96C1053.22 858.773 1051.13 860.227 1048.62 861.32C1046.11 862.387 1043.43 862.92 1040.58 862.92C1038.77 862.92 1037.07 862.68 1035.5 862.2C1033.93 861.72 1032.57 861.027 1031.42 860.12C1030.3 859.187 1029.41 858.04 1028.74 856.68C1028.1 855.293 1027.78 853.72 1027.78 851.96C1027.78 849.64 1028.31 847.693 1029.38 846.12C1030.45 844.547 1031.82 843.28 1033.5 842.32C1035.21 841.36 1037.1 840.64 1039.18 840.16C1041.29 839.68 1043.35 839.36 1045.38 839.2L1054.58 838.44V833.04C1054.58 828.933 1053.75 826.04 1052.1 824.36C1050.47 822.68 1047.98 821.84 1044.62 821.84C1042.09 821.84 1039.69 822.267 1037.42 823.12C1035.18 823.947 1033.1 825.253 1031.18 827.04L1029.14 825C1029.65 823.48 1030.47 822.133 1031.62 820.96C1032.77 819.76 1034.11 818.76 1035.66 817.96C1037.23 817.16 1038.99 816.56 1040.94 816.16C1042.89 815.733 1044.91 815.52 1047.02 815.52C1052.33 815.52 1056.31 816.867 1058.98 819.56C1061.65 822.227 1062.98 826.32 1062.98 831.84V854.48C1062.98 855.333 1063.17 855.96 1063.54 856.36C1063.94 856.733 1064.51 856.96 1065.26 857.04L1069.86 857.44V861.24C1069.19 861.48 1068.06 861.773 1066.46 862.12C1064.89 862.493 1063.46 862.68 1062.18 862.68Z" fill="black"/>
</svg>
