<svg width="614" height="580" viewBox="0 0 614 580" fill="none" xmlns="http://www.w3.org/2000/svg">
<g clip-path="url(#clip0_4:54)">
<path d="M126.869 123.749C126.85 134.515 123.639 145.034 117.641 153.975C111.644 162.916 103.13 169.878 93.1764 173.98C83.2225 178.083 72.2757 179.141 61.7202 177.022C51.1647 174.903 41.4746 169.701 33.8753 162.075C26.276 154.449 21.1089 144.74 19.0272 134.177C16.9456 123.614 18.043 112.671 22.1806 102.732C26.3182 92.7929 33.3103 84.3038 42.2726 78.3383C51.2349 72.3729 61.7649 69.199 72.5309 69.2181C79.6846 69.2122 86.7689 70.6201 93.3767 73.3608C99.9846 76.1016 105.986 80.1211 111.035 85.1885C116.084 90.2559 120.083 96.2711 122.8 102.889C125.517 109.506 126.9 116.595 126.869 123.749V123.749Z" fill="#F2F2F2"/>
<path d="M47.2046 105.945C49.4554 98.7716 54.5739 92.1925 61.6526 89.7675C68.7318 87.3425 79.0975 91.0365 84.4195 96.3405C94.1543 106.042 96.53 139.372 89.8417 149.905C88.5114 149.834 83.921 149.782 82.5746 149.732L80.6699 143.384V149.669C78.5248 149.603 76.363 149.557 74.1843 149.532C66.8798 149.441 59.8949 146.522 54.698 141.389C49.5011 136.255 46.497 129.306 46.3173 122.003C46.1431 115.017 46.3176 108.772 47.2046 105.945Z" fill="#CCCCCC"/>
<path d="M71.6271 129.719C80.1949 129.719 87.1405 122.774 87.1405 114.206C87.1405 105.638 80.1949 98.6923 71.6271 98.6923C63.0592 98.6923 56.1136 105.638 56.1136 114.206C56.1136 122.774 63.0592 129.719 71.6271 129.719Z" fill="#CCCCCC"/>
<path d="M58.2385 100.581L76.1007 91.6371C79.7526 93.2826 82.8977 95.8753 85.2098 99.146C87.522 102.417 88.917 106.246 89.2503 110.238L89.6955 115.571L82.2157 113.667L81.3962 106.848L80.126 113.135L76.6741 112.257L76.707 101.67L73.253 112.249L60.9243 109.417L58.2385 100.581Z" fill="#CCCCCC"/>
<path d="M112.828 159.675C103.398 170.405 90.1256 176.997 75.8771 178.027C61.6285 179.057 47.5466 174.442 36.671 165.179L41.34 152.151C42.3951 149.837 44.0602 147.854 46.1566 146.414C48.2531 144.975 50.7018 144.133 53.2403 143.979L56.2106 143.797L63.2932 137.688C63.2932 137.688 82.3769 137.007 82.0938 136.68L93.6534 143.633L93.6439 143.585L98.188 143.864C100.727 144.017 103.176 144.858 105.272 146.298C107.369 147.738 109.034 149.721 110.088 152.036L112.828 159.675Z" fill="#CCCCCC"/>
<path d="M72.8219 428.087C102.885 428.087 127.256 403.716 127.256 373.652C127.256 343.589 102.885 319.218 72.8219 319.218C42.7586 319.218 18.3875 343.589 18.3875 373.652C18.3875 403.716 42.7586 428.087 72.8219 428.087Z" fill="#F2F2F2"/>
<path d="M50.6064 352.361C49.8593 356.375 48.6342 360.285 46.9573 364.007C37.355 384.321 64.7006 377.7 74.4729 377.7C85.1576 377.7 95.3806 383.318 93.8192 358.353C93.1523 347.69 85.1576 339.007 74.4729 339.007C65.3465 339.007 52.5148 343.064 50.6064 352.361Z" fill="#CCCCCC"/>
<path d="M72.872 377.695C81.5545 377.695 88.5931 370.656 88.5931 361.974C88.5931 353.291 81.5545 346.253 72.872 346.253C64.1896 346.253 57.151 353.291 57.151 361.974C57.151 370.656 64.1896 377.695 72.872 377.695Z" fill="#CCCCCC"/>
<path d="M62.1957 345.948C64.9506 344.269 68.106 343.36 71.3321 343.318C74.5582 343.275 77.7364 344.1 80.5346 345.707C83.3327 347.313 85.6479 349.641 87.2382 352.449C88.8284 355.256 89.6352 358.439 89.5742 361.665C81.5635 363.676 73.1478 365.215 64.605 362.146L62.5875 357.208L61.3981 362.149C58.7965 363.213 56.1882 364.112 53.5799 362.139C53.4734 358.922 54.2131 355.734 55.725 352.893C57.237 350.052 59.4682 347.657 62.1957 345.948Z" fill="#CCCCCC"/>
<path d="M115.147 409.848C105.717 420.579 92.4446 427.17 78.1961 428.2C63.9475 429.23 49.8655 424.615 38.99 415.352L43.6589 402.324C44.7141 400.01 46.3791 398.027 48.4756 396.587C50.572 395.148 53.0208 394.306 55.5593 394.152L58.5295 393.97L65.6122 387.861C65.6122 387.861 84.6959 387.18 84.4128 386.853L95.9724 393.807L95.9628 393.759L100.507 394.037C103.046 394.19 105.495 395.032 107.591 396.471C109.688 397.911 111.353 399.894 112.407 402.209L115.147 409.848Z" fill="#CCCCCC"/>
<path d="M308.014 394.337C356.689 394.337 396.147 354.878 396.147 306.203C396.147 257.528 356.689 218.069 308.014 218.069C259.339 218.069 219.88 257.528 219.88 306.203C219.88 354.878 259.339 394.337 308.014 394.337Z" fill="#F2F2F2"/>
<path d="M311.606 315.193C327.478 315.193 340.345 302.326 340.345 286.454C340.345 270.582 327.478 257.715 311.606 257.715C295.734 257.715 282.867 270.582 282.867 286.454C282.867 302.326 295.734 315.193 311.606 315.193Z" fill="#CCCCCC"/>
<path d="M336.909 267.469C336.909 267.469 344.392 253.164 327.93 251.864C327.93 251.864 313.896 239.133 299.592 249.537C299.592 249.537 291.789 249.537 287.522 258.366C287.522 258.366 281.386 256.039 280.037 262.267C280.037 262.267 275.547 275.271 280.037 286.975C284.528 298.679 286.019 299.979 286.019 299.979C286.019 299.979 282.869 285.455 300.829 284.155C318.789 282.855 335.265 271.603 336.762 285.908C338.259 300.212 339.904 293.75 339.904 293.75C339.904 293.75 354.12 273.321 336.909 267.469Z" fill="#CCCCCC"/>
<path d="M373.807 364.807C358.538 382.18 337.05 392.853 313.98 394.52C290.91 396.187 268.11 388.715 250.502 373.718L258.061 352.624C259.77 348.878 262.466 345.667 265.86 343.336C269.254 341.005 273.219 339.642 277.329 339.393L282.138 339.098L293.606 329.208C293.606 329.208 324.504 328.105 324.045 327.577L342.761 338.834L342.746 338.756L350.103 339.207C354.214 339.455 358.179 340.817 361.573 343.148C364.968 345.479 367.663 348.691 369.371 352.438L373.807 364.807Z" fill="#CCCCCC"/>
<path d="M161.856 290.494C191.919 290.494 216.291 266.123 216.291 236.059C216.291 205.996 191.919 181.625 161.856 181.625C131.793 181.625 107.422 205.996 107.422 236.059C107.422 266.123 131.793 290.494 161.856 290.494Z" fill="#F2F2F2"/>
<path d="M160.354 242.802C169.95 242.802 177.73 235.023 177.73 225.426C177.73 215.83 169.95 208.05 160.354 208.05C150.757 208.05 142.978 215.83 142.978 225.426C142.978 235.023 150.757 242.802 160.354 242.802Z" fill="#CCCCCC"/>
<path d="M202.694 272.48C193.263 283.211 179.991 289.802 165.743 290.832C151.494 291.862 137.412 287.247 126.537 277.984L131.206 264.956C132.261 262.642 133.926 260.659 136.022 259.219C138.119 257.78 140.567 256.938 143.106 256.784L146.076 256.602L153.159 250.493C153.159 250.493 172.243 249.812 171.959 249.485L183.519 256.438L183.509 256.39L188.054 256.669C190.592 256.822 193.041 257.663 195.138 259.103C197.235 260.543 198.899 262.526 199.954 264.841L202.694 272.48Z" fill="#CCCCCC"/>
<path d="M178.68 214.65C177.211 209.395 173.875 204.856 169.298 201.885C165.65 199.552 161.098 198.361 156.965 199.595C152.832 200.829 149.41 204.885 149.681 209.267C148.915 209.066 148.108 209.083 147.352 209.316C146.596 209.55 145.92 209.991 145.401 210.589C144.364 211.813 143.643 213.272 143.301 214.84C141.975 219.753 142.063 224.941 143.555 229.806L143.473 230.505C145.489 230.171 147.018 228.441 147.969 226.598C148.92 224.755 149.468 222.71 150.498 220.912C151.529 219.114 153.241 217.51 155.283 217.453L155.103 220.575L160.373 217.859C159.955 218.859 159.537 219.859 159.12 220.858C160.654 220.217 162.188 219.576 163.722 218.934C163.551 219.896 163.379 220.857 163.208 221.818C163.61 220.984 164.177 220.24 164.876 219.631C165.574 219.022 166.388 218.561 167.269 218.276C168.151 217.991 169.081 217.888 170.003 217.973C170.925 218.058 171.821 218.329 172.636 218.77C174.47 220.004 175.793 221.864 176.356 224.003C176.913 226.137 177.212 228.33 177.247 230.534C179.618 225.584 180.126 219.945 178.68 214.65V214.65Z" fill="#CCCCCC"/>
<path d="M277.374 279.902V279.935C277.325 279.815 277.292 279.69 277.277 279.562L277.374 279.902Z" fill="#F2F2F2"/>
<path d="M277.374 279.935C277.455 280.274 277.553 280.615 277.65 280.938C277.517 280.975 277.381 281.002 277.245 281.019L277.374 279.935Z" fill="#F2F2F2"/>
<path d="M396.146 306.021C396.143 328.795 387.324 350.683 371.538 367.097C355.752 383.511 334.224 393.176 311.469 394.067V217.976C334.226 218.862 355.756 228.526 371.543 244.941C387.33 261.356 396.148 283.247 396.146 306.021V306.021Z" fill="#6C63FF"/>
<path d="M277.277 279.562L277.374 279.902V279.934C277.325 279.815 277.292 279.69 277.277 279.562V279.562Z" fill="#FFB6B6"/>
<path d="M333.715 288.811C333.72 291.137 333.431 293.454 332.857 295.708V295.724C331.563 300.808 328.875 305.429 325.096 309.068C321.317 312.706 316.597 315.218 311.469 316.319V261.286C317.765 262.639 323.407 266.109 327.455 271.118C331.503 276.126 333.712 282.371 333.715 288.811Z" fill="#C18888"/>
<path d="M374.127 364.988C366.26 373.962 356.647 381.238 345.873 386.371C335.1 391.504 323.393 394.387 311.469 394.844V328.672C318.35 328.348 324.583 328.009 324.372 327.766L343.089 339.018L343.073 338.937L350.424 339.391C354.534 339.635 358.501 340.996 361.896 343.326C365.291 345.657 367.986 348.87 369.691 352.619L373.949 364.486L374.127 364.988Z" fill="#3F3D56"/>
<path d="M277.374 279.935C277.455 280.274 277.553 280.615 277.65 280.938C277.517 280.975 277.381 281.002 277.245 281.019L277.374 279.935Z" fill="#2F2E41"/>
<path d="M332.938 297.068C332.905 296.615 332.889 296.177 332.857 295.724V295.708C332.763 292.595 332.306 289.503 331.497 286.495C330.444 283.095 328.469 279.841 325.474 278.027C320.989 275.307 314.69 276.781 311.469 280.861V246.909C314.518 247.705 317.42 248.984 320.066 250.697C327.477 255.503 332.877 262.85 335.253 271.357C337.592 279.927 336.77 289.053 332.938 297.068Z" fill="#2F2E41"/>
<path d="M310.11 653C309.83 653.014 309.556 652.916 309.348 652.729C309.14 652.542 309.015 652.28 309 652V90C309.029 89.7256 309.158 89.4716 309.363 89.2869C309.568 89.1022 309.834 89 310.11 89C310.385 89 310.652 89.1022 310.856 89.2869C311.061 89.4716 311.191 89.7256 311.219 90V652C311.204 652.28 311.079 652.542 310.871 652.729C310.663 652.916 310.389 653.014 310.11 653V653Z" fill="#2F2E41"/>
<path d="M188.001 89C187.995 88.7481 188.036 88.5014 188.117 88.314C188.197 88.1266 188.31 88.0137 188.43 88L429.571 88C429.689 88.0258 429.798 88.1422 429.877 88.3269C429.956 88.5116 430 88.7514 430 89C430 89.2487 429.956 89.4884 429.877 89.6731C429.798 89.8578 429.689 89.9742 429.571 90L188.43 90C188.31 89.9863 188.197 89.8734 188.117 89.686C188.036 89.4986 187.995 89.252 188.001 89V89Z" fill="#2F2E41"/>
<path d="M420.821 278.696L390.163 271.176L349.288 236.425L356.094 225.62L393.122 249.208C393.122 249.208 417.62 255.428 425.999 262.6L420.821 278.696Z" fill="#FFB6B6"/>
<path d="M350.711 237.083C354.835 237.083 358.179 233.739 358.179 229.614C358.179 225.489 354.835 222.145 350.711 222.145C346.586 222.145 343.242 225.489 343.242 229.614C343.242 233.739 346.586 237.083 350.711 237.083Z" fill="#FFB6B6"/>
<path d="M422.261 258.587L393.83 246.994L380.166 263.22L390.317 271.583L417.99 278.775L418.01 278.848C419.953 286.012 432.451 290.875 442.593 293.694C445.938 294.62 449.51 294.242 452.587 292.636C455.664 291.03 458.016 288.315 459.168 285.041V285.041C460.002 282.62 460.141 280.014 459.572 277.517C459.002 275.021 457.745 272.734 455.943 270.915L446.733 261.68L422.261 258.587Z" fill="#3F3D56"/>
<path d="M343.649 549.953L333.685 546.161L343.567 505.926L358.272 511.522L343.649 549.953Z" fill="#FFB6B6"/>
<path d="M347.429 547.667L344.624 546.6L335.369 537.981L327.806 540.201L327.806 540.2C324.489 538.939 320.807 539.046 317.57 540.499C314.333 541.952 311.805 544.631 310.543 547.947L310.388 548.354L342.516 560.578L347.429 547.667Z" fill="#2F2E41"/>
<path d="M444.371 566.657L433.711 566.656L428.639 525.537L444.373 525.538L444.371 566.657Z" fill="#FFB6B6"/>
<path d="M447.091 563.176L444.09 563.176L432.375 558.412L426.096 563.176H426.096C422.547 563.176 419.144 564.585 416.635 567.094C414.126 569.604 412.716 573.006 412.716 576.555V576.99L447.09 576.991L447.091 563.176Z" fill="#2F2E41"/>
<path d="M460.627 389.54C460.627 389.54 461.872 404.478 458.76 418.793C456.809 427.767 456.081 446.958 455.809 460.03C455.648 467.812 452.148 469.052 452.148 469.052L454.469 486.948L448.801 551.989L428.262 550.122L422.66 418.793L385.743 447.985L386.767 451.399C387.265 453.058 383.592 452.846 382.123 453.765L378.501 462.168C378.572 463.557 378.216 464.934 377.48 466.114C376.744 467.295 375.664 468.221 374.386 468.769L355.147 526L340.147 517L345.147 465L352.147 441L380.336 406.345L380.958 396.387L383.759 396.502L385.185 392.341L387.805 385.183L460.627 389.54Z" fill="#2F2E41"/>
<path d="M461.703 392.678L461.814 392.522C467.738 384.228 458.828 364.297 457.484 361.407C459.08 360.89 460.447 359.834 461.352 358.422C462.257 357.009 462.645 355.327 462.449 353.66L461.87 348.736L461.266 343.905L465.592 339.579L465.604 339.471L468.094 317.687L471.714 303.218C473.078 297.748 472.961 292.014 471.377 286.604C469.792 281.194 466.797 276.303 462.698 272.433L454.33 264.544L444.161 249.498H427.763L422.14 260.118C416.689 261.378 411.852 264.511 408.473 268.97C405.094 273.429 403.386 278.932 403.647 284.521L404.922 312.376L399.933 347.057L399.93 353.333L397.331 356.221C396.396 357.261 395.715 358.505 395.345 359.855C394.975 361.204 394.926 362.621 395.2 363.993L395.542 365.702C394.221 366.268 393.055 367.142 392.142 368.252C391.23 369.361 390.596 370.673 390.295 372.078L389.382 376.337C388.602 377.367 383.448 384.238 383.448 386.117C383.448 386.399 383.656 386.672 384.103 386.974C387.615 389.352 407.026 394.2 415.618 390.762C424.769 387.103 461.147 392.593 461.514 392.649L461.703 392.678Z" fill="#3F3D56"/>
<path d="M433.844 244.641C445.838 244.641 455.562 234.917 455.562 222.923C455.562 210.929 445.838 201.205 433.844 201.205C421.849 201.205 412.126 210.929 412.126 222.923C412.126 234.917 421.849 244.641 433.844 244.641Z" fill="#FFB6B6"/>
<path d="M426.761 318.325L411.674 346.053L367.653 376.72L358.939 367.384L391.187 337.592C391.187 337.592 403.446 315.489 412.516 309.215L426.761 318.325Z" fill="#FFB6B6"/>
<path d="M361.429 381.077C365.554 381.077 368.898 377.733 368.898 373.608C368.898 369.483 365.554 366.139 361.429 366.139C357.304 366.139 353.96 369.483 353.96 373.608C353.96 377.733 357.304 381.077 361.429 381.077Z" fill="#FFB6B6"/>
<path d="M425.403 322.021L434.89 299.251L431.459 286.668C430.776 284.2 429.417 281.973 427.535 280.237C425.652 278.501 423.322 277.326 420.807 276.845V276.845C417.393 276.216 413.868 276.907 410.945 278.777C408.021 280.648 405.916 283.559 405.057 286.922C402.458 297.123 400.463 310.385 405.711 315.633L405.764 315.686L390.147 336.052L413.147 349.052L425.403 322.021Z" fill="#3F3D56"/>
<path d="M455.301 207.957C453.535 205.577 450.997 203.885 449.056 201.646C448.078 200.347 447.027 199.105 445.908 197.925C443.563 195.976 440.603 194.918 437.553 194.94C434.244 194.855 430.962 195.551 427.971 196.97C424.981 198.389 422.367 200.492 420.34 203.109C418.762 202.184 417.184 201.258 415.606 200.333C414.983 201.974 414.359 203.615 413.736 205.256C413.224 204.811 412.571 204.562 411.894 204.553C411.216 204.543 410.556 204.774 410.032 205.204C409.508 205.634 409.154 206.236 409.031 206.903C408.908 207.57 409.026 208.258 409.362 208.847C408.987 207.686 407.266 207.44 406.317 208.207C405.878 208.632 405.552 209.16 405.369 209.744C405.186 210.327 405.152 210.947 405.269 211.547C405.464 212.875 406.051 214.114 406.954 215.105C407.858 216.096 409.038 216.794 410.342 217.11C412.401 217.569 414.798 217.087 416.447 218.404C417.768 219.459 418.167 221.382 419.516 222.403C421.177 223.661 423.526 223.079 425.592 223.358C427.393 223.666 429.012 224.639 430.131 226.084C431.249 227.529 431.785 229.34 431.633 231.161C431.886 229.997 432.366 228.893 433.046 227.915C433.394 227.431 433.875 227.059 434.431 226.844C434.987 226.628 435.593 226.578 436.176 226.7C438.058 227.264 438.365 229.829 437.91 231.739C436.7 236.806 432.117 244.996 432.117 244.996C438.068 247.344 445.158 245.124 449.75 240.67C454.342 236.215 456.733 229.907 457.775 223.595C458.658 218.243 458.533 212.314 455.301 207.957Z" fill="#2F2E41"/>
<path d="M601 578.5C601 578.434 600.97 578.369 600.91 578.308C600.851 578.248 600.763 578.192 600.652 578.146C600.541 578.1 600.41 578.063 600.265 578.038C600.12 578.013 599.965 578 599.809 578H319.191C318.875 578 318.572 578.053 318.349 578.146C318.126 578.24 318 578.367 318 578.5C318 578.633 318.126 578.76 318.349 578.854C318.572 578.947 318.875 579 319.191 579H599.809C599.965 579 600.12 578.987 600.265 578.962C600.41 578.937 600.541 578.9 600.652 578.854C600.763 578.808 600.851 578.752 600.91 578.692C600.97 578.631 601 578.566 601 578.5V578.5Z" fill="#CCCCCC"/>
<path d="M153.225 72.4422C153.225 73.4196 153.039 74.3971 152.666 75.3745C152.294 76.3404 151.706 77.2073 150.903 77.9753C150.1 78.7433 149.053 79.3716 147.761 79.8604C146.481 80.3375 144.94 80.576 143.136 80.576C141.321 80.576 139.633 80.3549 138.074 79.9127C136.515 79.4705 135.206 78.976 134.147 78.4291C134.089 77.2189 134.1 75.9505 134.182 74.624C134.275 73.2858 134.409 72.0931 134.583 71.0458H137.847L138.528 75.4269C138.563 75.6713 138.633 75.904 138.737 76.1251C138.842 76.3345 139.005 76.5382 139.226 76.736C139.61 77.0967 140.169 77.44 140.902 77.7658C141.635 78.08 142.449 78.2371 143.345 78.2371C144.672 78.2371 145.696 77.888 146.417 77.1898C147.151 76.48 147.517 75.5375 147.517 74.3622C147.517 73.5942 147.36 72.9193 147.046 72.3375C146.743 71.7556 146.324 71.232 145.789 70.7665C145.265 70.3011 144.637 69.8705 143.904 69.4749C143.183 69.0676 142.403 68.6545 141.565 68.2356C140.681 67.7818 139.808 67.3164 138.947 66.8393C138.086 66.3505 137.324 65.7978 136.66 65.1811C135.997 64.5527 135.456 63.8196 135.037 62.9818C134.63 62.1324 134.426 61.1316 134.426 59.9796C134.426 58.8742 134.624 57.8444 135.02 56.8902C135.427 55.936 136.026 55.1156 136.817 54.4291C137.62 53.7425 138.621 53.2073 139.82 52.8233C141.018 52.4276 142.415 52.2298 144.009 52.2298C145.359 52.2298 146.72 52.3636 148.093 52.6313C149.478 52.8989 150.671 53.248 151.671 53.6785C151.753 54.8305 151.759 56.0058 151.689 57.2044C151.631 58.4029 151.514 59.5433 151.34 60.6255H148.163L147.447 56.8029C147.389 56.5004 147.302 56.2444 147.185 56.0349C147.081 55.8138 146.918 55.616 146.697 55.4415C146.371 55.1855 145.917 54.9702 145.335 54.7956C144.765 54.6211 144.177 54.5338 143.572 54.5338C142.374 54.5338 141.443 54.848 140.78 55.4764C140.128 56.1047 139.802 56.9542 139.802 58.0247C139.802 58.7345 139.936 59.3513 140.204 59.8749C140.483 60.3985 140.879 60.8756 141.391 61.3062C141.903 61.7367 142.531 62.1556 143.276 62.5629C144.02 62.9702 144.864 63.4065 145.807 63.872C146.784 64.3607 147.721 64.8785 148.617 65.4255C149.524 65.9724 150.316 66.5833 150.991 67.2582C151.665 67.9331 152.207 68.6953 152.614 69.5447C153.021 70.3942 153.225 71.36 153.225 72.4422ZM165.667 62.0044C164.725 62.0044 163.945 62.3767 163.328 63.1215C162.723 63.8662 162.334 65.1345 162.159 66.9265H168.774C168.786 66.8102 168.792 66.688 168.792 66.56C168.792 66.432 168.792 66.2865 168.792 66.1236C168.792 64.9251 168.53 63.9418 168.006 63.1738C167.494 62.3942 166.715 62.0044 165.667 62.0044ZM173.749 75.6538C173.283 77.1665 172.329 78.3418 170.886 79.1796C169.443 80.0175 167.692 80.4364 165.632 80.4364C164.062 80.4364 162.694 80.192 161.531 79.7033C160.379 79.2145 159.424 78.528 158.668 77.6436C157.912 76.7593 157.347 75.6887 156.975 74.432C156.614 73.1753 156.434 71.7789 156.434 70.2429C156.434 66.8335 157.289 64.2153 159 62.3884C160.722 60.5498 163.096 59.6305 166.121 59.6305C168.693 59.6305 170.624 60.2531 171.916 61.4982C173.219 62.7433 173.871 64.384 173.871 66.4204C173.871 66.816 173.848 67.264 173.801 67.7644C173.755 68.2647 173.691 68.7127 173.609 69.1084H162.054V69.2305C162.054 72 162.473 73.9898 163.311 75.2C164.149 76.3985 165.464 76.9978 167.256 76.9978C168.268 76.9978 169.234 76.8058 170.153 76.4218C171.084 76.0378 171.84 75.4793 172.422 74.7462L173.749 75.6538ZM184.844 49.2975V76.3869C184.844 76.6778 184.913 76.9105 185.053 77.0851C185.204 77.248 185.42 77.3527 185.699 77.3993L187.933 77.7658V80H176.273V77.7484L178.525 77.3993C178.804 77.3527 179.02 77.248 179.171 77.0851C179.322 76.9222 179.398 76.6953 179.398 76.4044V53.2073C179.398 52.9164 179.322 52.6895 179.171 52.5265C179.02 52.352 178.81 52.2415 178.543 52.1949L176.134 51.8458V49.664C176.716 49.5127 177.35 49.3731 178.036 49.2451C178.723 49.1055 179.415 48.9891 180.113 48.896C180.812 48.8029 181.504 48.7331 182.191 48.6865C182.877 48.6284 183.511 48.5993 184.093 48.5993L184.844 49.2975ZM199.605 62.0044C198.662 62.0044 197.883 62.3767 197.266 63.1215C196.661 63.8662 196.271 65.1345 196.097 66.9265H202.712C202.723 66.8102 202.729 66.688 202.729 66.56C202.729 66.432 202.729 66.2865 202.729 66.1236C202.729 64.9251 202.467 63.9418 201.944 63.1738C201.432 62.3942 200.652 62.0044 199.605 62.0044ZM207.686 75.6538C207.221 77.1665 206.267 78.3418 204.824 79.1796C203.381 80.0175 201.63 80.4364 199.57 80.4364C197.999 80.4364 196.632 80.192 195.468 79.7033C194.316 79.2145 193.362 78.528 192.606 77.6436C191.849 76.7593 191.285 75.6887 190.913 74.432C190.552 73.1753 190.371 71.7789 190.371 70.2429C190.371 66.8335 191.227 64.2153 192.937 62.3884C194.659 60.5498 197.033 59.6305 200.059 59.6305C202.63 59.6305 204.562 60.2531 205.854 61.4982C207.157 62.7433 207.809 64.384 207.809 66.4204C207.809 66.816 207.785 67.264 207.739 67.7644C207.692 68.2647 207.628 68.7127 207.547 69.1084H195.992V69.2305C195.992 72 196.411 73.9898 197.249 75.2C198.086 76.3985 199.401 76.9978 201.193 76.9978C202.206 76.9978 203.171 76.8058 204.091 76.4218C205.022 76.0378 205.778 75.4793 206.36 74.7462L207.686 75.6538ZM210.962 70.2953C210.962 68.6196 211.2 67.1185 211.677 65.792C212.154 64.4655 212.829 63.3484 213.702 62.4407C214.575 61.5215 215.628 60.8233 216.861 60.3462C218.106 59.8575 219.479 59.6131 220.98 59.6131C222.167 59.6131 223.354 59.7527 224.541 60.032C225.74 60.2996 226.723 60.6429 227.491 61.0618C227.572 62.144 227.572 63.2495 227.491 64.3782C227.41 65.4953 227.276 66.56 227.09 67.5724H224.419L223.511 64.2735C223.407 63.8895 223.302 63.5869 223.197 63.3658C223.092 63.1447 222.953 62.9527 222.778 62.7898C222.557 62.6036 222.266 62.4465 221.906 62.3185C221.556 62.1789 221.167 62.1091 220.736 62.1091C219.584 62.1091 218.647 62.6909 217.926 63.8545C217.216 65.0182 216.861 66.8916 216.861 69.4749C216.861 71.9651 217.257 73.8444 218.048 75.1127C218.851 76.3695 220.114 76.9978 221.836 76.9978C222.883 76.9978 223.802 76.8058 224.594 76.4218C225.385 76.0378 226.013 75.6247 226.479 75.1825L227.735 76.2124C227.27 77.4342 226.374 78.4465 225.047 79.2495C223.721 80.0407 222.068 80.4364 220.09 80.4364C218.531 80.4364 217.175 80.1804 216.023 79.6684C214.871 79.1447 213.923 78.4349 213.178 77.5389C212.434 76.6313 211.875 75.5549 211.503 74.3098C211.142 73.0647 210.962 71.7265 210.962 70.2953ZM239.011 60.3811V76.3869C239.011 76.6662 239.081 76.8931 239.22 77.0676C239.371 77.2422 239.587 77.3527 239.866 77.3993L241.838 77.7484V80H230.72V77.7484L232.692 77.3993C232.971 77.3527 233.187 77.2422 233.338 77.0676C233.489 76.8931 233.565 76.6662 233.565 76.3869V64.3782C233.565 64.0989 233.495 63.872 233.355 63.6975C233.216 63.5113 233.012 63.3949 232.745 63.3484L230.51 62.9295V60.6604C231.674 60.3345 232.966 60.0902 234.385 59.9273C235.805 59.7644 237.097 59.6829 238.26 59.6829L239.011 60.3811ZM239.081 54.2196C239.081 55.104 238.795 55.8196 238.225 56.3665C237.655 56.9018 236.899 57.1695 235.956 57.1695C235.002 57.1695 234.234 56.9018 233.652 56.3665C233.082 55.8196 232.797 55.104 232.797 54.2196C232.797 53.3469 233.082 52.6429 233.652 52.1076C234.234 51.5724 235.002 51.3047 235.956 51.3047C236.899 51.3047 237.655 51.5724 238.225 52.1076C238.795 52.6429 239.081 53.3469 239.081 54.2196ZM244.418 70.2255C244.418 68.3171 244.674 66.688 245.186 65.3382C245.71 63.9767 246.42 62.8771 247.316 62.0393C248.223 61.2015 249.294 60.5905 250.527 60.2065C251.761 59.8109 253.082 59.6131 254.49 59.6131C257.55 59.6131 259.9 60.4858 261.541 62.2313C263.182 63.9651 264.002 66.5076 264.002 69.8589C264.002 71.7673 263.74 73.3964 263.217 74.7462C262.705 76.096 261.995 77.1898 261.087 78.0276C260.191 78.8655 259.127 79.4764 257.893 79.8604C256.66 80.2444 255.333 80.4364 253.914 80.4364C250.853 80.4364 248.503 79.5695 246.862 77.8356C245.233 76.1018 244.418 73.5651 244.418 70.2255ZM258.085 70.2778C258.085 67.4502 257.8 65.3731 257.23 64.0465C256.671 62.7084 255.63 62.0393 254.106 62.0393C252.837 62.0393 251.889 62.6211 251.26 63.7847C250.632 64.9484 250.318 66.9498 250.318 69.7891C250.318 72.6051 250.597 74.6822 251.156 76.0204C251.726 77.3585 252.779 78.0276 254.315 78.0276C255.583 78.0276 256.526 77.4458 257.143 76.2822C257.771 75.1069 258.085 73.1055 258.085 70.2778ZM277.637 77.7484V80H267.095V77.7484L269.085 77.3993C269.352 77.3527 269.562 77.2422 269.713 77.0676C269.864 76.8931 269.94 76.6662 269.94 76.3869V64.3782C269.94 64.0989 269.87 63.872 269.73 63.6975C269.591 63.5113 269.387 63.3949 269.12 63.3484L266.885 62.9295V60.6604C268.014 60.3462 269.207 60.1076 270.464 59.9447C271.72 59.7702 272.901 59.6771 274.007 59.6655L274.792 60.3985L275.124 62.3709C275.997 61.44 276.997 60.7651 278.126 60.3462C279.266 59.9156 280.477 59.7004 281.757 59.7004C284.084 59.7004 285.672 60.3636 286.522 61.6902C287.383 63.0051 287.813 64.8611 287.813 67.2582V76.3869C287.813 76.6778 287.889 76.9105 288.04 77.0851C288.192 77.248 288.401 77.3527 288.669 77.3993L290.658 77.7484V80H280.116V77.7484L281.53 77.4167C281.797 77.3353 282.001 77.2189 282.141 77.0676C282.292 76.9047 282.368 76.6778 282.368 76.3869V67.9564C282.368 66.2225 282.117 64.9716 281.617 64.2036C281.128 63.4356 280.29 63.0516 279.104 63.0516C278.487 63.0516 277.853 63.1447 277.201 63.3309C276.561 63.5171 275.956 63.7905 275.386 64.1513V76.3869C275.386 76.6662 275.456 76.8873 275.595 77.0502C275.746 77.2131 275.95 77.3353 276.206 77.4167L277.637 77.7484ZM302.308 62.0044C301.365 62.0044 300.586 62.3767 299.969 63.1215C299.364 63.8662 298.974 65.1345 298.8 66.9265H305.415C305.427 66.8102 305.432 66.688 305.432 66.56C305.432 66.432 305.432 66.2865 305.432 66.1236C305.432 64.9251 305.171 63.9418 304.647 63.1738C304.135 62.3942 303.355 62.0044 302.308 62.0044ZM310.389 75.6538C309.924 77.1665 308.97 78.3418 307.527 79.1796C306.084 80.0175 304.333 80.4364 302.273 80.4364C300.702 80.4364 299.335 80.192 298.171 79.7033C297.019 79.2145 296.065 78.528 295.309 77.6436C294.552 76.7593 293.988 75.6887 293.616 74.432C293.255 73.1753 293.075 71.7789 293.075 70.2429C293.075 66.8335 293.93 64.2153 295.64 62.3884C297.363 60.5498 299.736 59.6305 302.762 59.6305C305.333 59.6305 307.265 60.2531 308.557 61.4982C309.86 62.7433 310.512 64.384 310.512 66.4204C310.512 66.816 310.488 67.264 310.442 67.7644C310.395 68.2647 310.331 68.7127 310.25 69.1084H298.695V69.2305C298.695 72 299.114 73.9898 299.952 75.2C300.789 76.3985 302.104 76.9978 303.896 76.9978C304.909 76.9978 305.875 76.8058 306.794 76.4218C307.725 76.0378 308.481 75.4793 309.063 74.7462L310.389 75.6538ZM349.271 52.736H359.447V55.0924L357.457 55.5985C357.19 55.6684 356.986 55.7905 356.847 55.9651C356.707 56.1396 356.637 56.3665 356.637 56.6458V69.9287C356.637 71.8138 356.387 73.4255 355.887 74.7636C355.398 76.0902 354.7 77.1724 353.792 78.0102C352.896 78.848 351.791 79.4589 350.476 79.8429C349.172 80.2269 347.712 80.4189 346.095 80.4189C342.417 80.4189 339.689 79.5578 337.908 77.8356C336.128 76.1135 335.238 73.3789 335.238 69.632V56.6458C335.238 56.3665 335.168 56.1455 335.028 55.9825C334.889 55.808 334.691 55.68 334.435 55.5985L332.602 55.0924V52.736H344.838V55.0924L341.958 55.6858C341.69 55.7324 341.481 55.8487 341.329 56.0349C341.19 56.2095 341.12 56.4305 341.12 56.6982V70.1382C341.12 72.7564 341.591 74.7287 342.534 76.0553C343.488 77.3818 344.983 78.0451 347.02 78.0451C349.242 78.0451 350.801 77.3353 351.697 75.9156C352.593 74.4844 353.041 72.5876 353.041 70.2255V56.6633C353.041 56.3724 352.966 56.1396 352.815 55.9651C352.675 55.7905 352.471 55.68 352.204 55.6335L349.271 55.0924V52.736ZM361.82 79.0051C361.703 78.0742 361.657 77.1258 361.68 76.16C361.715 75.1825 361.796 74.2633 361.924 73.4022H364.682L365.398 76.0029C365.503 76.3753 365.607 76.6662 365.712 76.8756C365.828 77.0735 365.997 77.2538 366.218 77.4167C366.486 77.5913 366.882 77.7775 367.405 77.9753C367.929 78.1731 368.522 78.272 369.186 78.272C370.175 78.272 370.931 78.0276 371.455 77.5389C371.978 77.0385 372.24 76.4393 372.24 75.7411C372.24 75.2407 372.106 74.8102 371.839 74.4495C371.571 74.0887 371.199 73.7571 370.722 73.4545C370.256 73.152 369.692 72.8553 369.029 72.5644C368.377 72.2735 367.655 71.9476 366.864 71.5869C365.375 70.9004 364.164 70.1265 363.234 69.2655C362.303 68.3927 361.837 67.1825 361.837 65.6349C361.837 63.8196 362.518 62.3651 363.879 61.2713C365.252 60.1775 367.248 59.6305 369.866 59.6305C370.972 59.6305 372.13 59.7411 373.34 59.9622C374.55 60.1833 375.574 60.4625 376.412 60.8C376.47 61.6378 376.476 62.5222 376.429 63.4531C376.383 64.384 376.278 65.28 376.115 66.1411L373.549 66.1236L372.834 63.7149C372.729 63.3891 372.613 63.1273 372.484 62.9295C372.356 62.7316 372.164 62.5571 371.909 62.4058C371.629 62.2196 371.309 62.08 370.948 61.9869C370.588 61.8938 370.192 61.8415 369.762 61.8298C368.924 61.8182 368.231 62.0218 367.684 62.4407C367.149 62.848 366.882 63.4356 366.882 64.2036C366.882 64.704 367.004 65.1345 367.248 65.4953C367.493 65.8444 367.812 66.1527 368.208 66.4204C368.615 66.688 369.081 66.9382 369.604 67.1709C370.128 67.392 370.675 67.6189 371.245 67.8516C372.071 68.2007 372.868 68.5673 373.636 68.9513C374.416 69.3353 375.097 69.7775 375.679 70.2778C376.26 70.7782 376.726 71.3658 377.075 72.0407C377.424 72.7156 377.599 73.5185 377.599 74.4495C377.599 75.4502 377.389 76.3345 376.97 77.1025C376.551 77.8589 375.97 78.4931 375.225 79.0051C374.48 79.5055 373.59 79.8836 372.554 80.1396C371.519 80.3956 370.396 80.5236 369.186 80.5236C367.731 80.5236 366.364 80.3607 365.084 80.0349C363.815 79.7207 362.727 79.3775 361.82 79.0051ZM399.081 80.3142C398.104 80.3142 397.295 80.1105 396.655 79.7033C396.026 79.2844 395.549 78.6909 395.224 77.9229C394.479 78.7025 393.612 79.3135 392.623 79.7556C391.645 80.1862 390.447 80.4015 389.027 80.4015C386.921 80.4015 385.35 79.8255 384.314 78.6735C383.29 77.5215 382.778 75.7644 382.778 73.4022V64.3258C382.778 64.0582 382.714 63.8371 382.586 63.6625C382.458 63.4764 382.255 63.3542 381.976 63.296L380.003 62.8596V60.5556C381.12 60.2764 382.365 60.0611 383.738 59.9098C385.112 59.7585 386.362 59.6829 387.491 59.6829L388.224 60.3811V72.6342C388.224 74.368 388.463 75.5782 388.94 76.2647C389.429 76.9396 390.237 77.2771 391.366 77.2771C391.96 77.2771 392.553 77.184 393.146 76.9978C393.74 76.8 394.304 76.5207 394.84 76.16V64.3258C394.84 64.0465 394.77 63.8138 394.63 63.6276C394.49 63.4415 394.287 63.3193 394.019 63.2611L391.82 62.8073V60.5207C392.39 60.3811 393.007 60.2589 393.67 60.1542C394.333 60.0495 395.002 59.9622 395.677 59.8924C396.352 59.8225 397.021 59.7702 397.685 59.7353C398.348 59.7004 398.965 59.6829 399.535 59.6829L400.285 60.3811V76.2473C400.285 76.6313 400.367 76.8989 400.53 77.0502C400.704 77.2015 400.937 77.2945 401.228 77.3295L403.026 77.5389V79.6509C402.618 79.7789 402.031 79.9185 401.263 80.0698C400.506 80.2327 399.779 80.3142 399.081 80.3142ZM413.319 77.2596C413.947 77.2596 414.558 77.1607 415.152 76.9629C415.757 76.7535 416.292 76.4742 416.757 76.1251V71.6916L414.366 71.8662C413.156 71.9476 412.289 72.2618 411.765 72.8087C411.242 73.3556 410.98 74.0538 410.98 74.9033C410.98 75.6713 411.16 76.2589 411.521 76.6662C411.893 77.0618 412.493 77.2596 413.319 77.2596ZM420.929 80.3142C419.987 80.3142 419.184 80.1338 418.52 79.7731C417.869 79.4007 417.38 78.7898 417.054 77.9404C416.368 78.7084 415.507 79.3135 414.471 79.7556C413.447 80.1862 412.312 80.4015 411.067 80.4015C409.357 80.4015 407.972 79.9651 406.913 79.0924C405.866 78.208 405.342 77.0211 405.342 75.5316C405.342 74.5775 405.557 73.7513 405.988 73.0531C406.43 72.3433 407.012 71.7615 407.733 71.3076C408.455 70.8422 409.275 70.4873 410.195 70.2429C411.125 69.9869 412.08 69.8298 413.057 69.7716L416.757 69.5273V67.4502C416.757 65.8909 416.42 64.8087 415.745 64.2036C415.082 63.5985 414.099 63.296 412.795 63.296C411.713 63.296 410.707 63.4764 409.776 63.8371C408.845 64.1862 407.978 64.7156 407.175 65.4255L405.936 64.3084C406.471 62.8538 407.466 61.7193 408.92 60.9047C410.387 60.0785 412.208 59.6655 414.384 59.6655C417.037 59.6655 418.98 60.2996 420.213 61.568C421.447 62.8364 422.064 64.7156 422.064 67.2058V76.2473C422.064 76.6196 422.139 76.8873 422.291 77.0502C422.453 77.2015 422.686 77.2945 422.989 77.3295L424.804 77.5389V79.6509C424.408 79.7673 423.827 79.9069 423.059 80.0698C422.291 80.2327 421.581 80.3142 420.929 80.3142ZM439.402 77.7658V80H427.079V77.7484L429.052 77.3993C429.331 77.3527 429.546 77.248 429.697 77.0851C429.849 76.9105 429.924 76.6778 429.924 76.3869V64.4305C429.924 64.1396 429.854 63.9011 429.715 63.7149C429.587 63.5171 429.377 63.3949 429.086 63.3484L426.87 62.9295V60.6604C427.917 60.3462 429.052 60.1076 430.273 59.9447C431.495 59.7702 432.624 59.6771 433.66 59.6655L434.515 60.3636L435.091 63.7498C435.859 62.5396 436.784 61.5505 437.866 60.7825C438.948 60.0029 440.071 59.6131 441.235 59.6131C441.607 59.6131 442.067 59.6655 442.614 59.7702C443.161 59.8633 443.58 59.9855 443.87 60.1367C443.929 60.6371 443.958 61.1898 443.958 61.7949C443.969 62.4 443.952 63.0225 443.905 63.6625C443.87 64.3025 443.806 64.9542 443.713 65.6175C443.632 66.2807 443.527 66.9091 443.399 67.5025H440.938L440.362 65.2335C440.246 64.8262 440.089 64.5527 439.891 64.4131C439.693 64.2735 439.408 64.2036 439.036 64.2036C438.489 64.192 437.889 64.3025 437.238 64.5353C436.598 64.768 435.975 65.152 435.37 65.6873V76.3869C435.37 76.6778 435.446 76.9105 435.597 77.0851C435.748 77.2596 435.969 77.3644 436.26 77.3993L439.402 77.7658ZM454.729 60.3811V76.3869C454.729 76.6662 454.799 76.8931 454.939 77.0676C455.09 77.2422 455.305 77.3527 455.585 77.3993L457.557 77.7484V80H446.439V77.7484L448.411 77.3993C448.69 77.3527 448.905 77.2422 449.057 77.0676C449.208 76.8931 449.284 76.6662 449.284 76.3869V64.3782C449.284 64.0989 449.214 63.872 449.074 63.6975C448.935 63.5113 448.731 63.3949 448.463 63.3484L446.229 62.9295V60.6604C447.393 60.3345 448.684 60.0902 450.104 59.9273C451.524 59.7644 452.815 59.6829 453.979 59.6829L454.729 60.3811ZM454.799 54.2196C454.799 55.104 454.514 55.8196 453.944 56.3665C453.374 56.9018 452.617 57.1695 451.675 57.1695C450.721 57.1695 449.953 56.9018 449.371 56.3665C448.801 55.8196 448.516 55.104 448.516 54.2196C448.516 53.3469 448.801 52.6429 449.371 52.1076C449.953 51.5724 450.721 51.3047 451.675 51.3047C452.617 51.3047 453.374 51.5724 453.944 52.1076C454.514 52.6429 454.799 53.3469 454.799 54.2196ZM460.137 70.2255C460.137 68.3171 460.393 66.688 460.905 65.3382C461.429 63.9767 462.139 62.8771 463.035 62.0393C463.942 61.2015 465.013 60.5905 466.246 60.2065C467.48 59.8109 468.8 59.6131 470.208 59.6131C473.269 59.6131 475.619 60.4858 477.26 62.2313C478.901 63.9651 479.721 66.5076 479.721 69.8589C479.721 71.7673 479.459 73.3964 478.936 74.7462C478.424 76.096 477.714 77.1898 476.806 78.0276C475.91 78.8655 474.845 79.4764 473.612 79.8604C472.379 80.2444 471.052 80.4364 469.632 80.4364C466.572 80.4364 464.221 79.5695 462.581 77.8356C460.952 76.1018 460.137 73.5651 460.137 70.2255ZM473.804 70.2778C473.804 67.4502 473.519 65.3731 472.949 64.0465C472.39 62.7084 471.349 62.0393 469.824 62.0393C468.556 62.0393 467.608 62.6211 466.979 63.7847C466.351 64.9484 466.037 66.9498 466.037 69.7891C466.037 72.6051 466.316 74.6822 466.875 76.0204C467.445 77.3585 468.498 78.0276 470.034 78.0276C471.302 78.0276 472.245 77.4458 472.861 76.2822C473.49 75.1069 473.804 73.1055 473.804 70.2778Z" fill="black"/>
</g>
<defs>
<clipPath id="clip0_4:54">
<rect width="614" height="580" fill="white"/>
</clipPath>
</defs>
</svg>
