<svg width="1121" height="544" viewBox="0 0 1121 544" fill="none" xmlns="http://www.w3.org/2000/svg">
<g clip-path="url(#clip0_1:31)">
<path d="M443.559 414.101C429.647 346.834 412.257 324.407 412.257 324.407L405.614 319.255L397.624 313.049L397.663 312.251L395.768 311.607L395.323 311.261L394.594 310.701L394.476 310.827L394.229 311.084L358.076 298.795L312.211 283.216L290.972 255.61C287.513 251.114 283.06 247.48 277.962 244.993C272.863 242.506 267.258 241.234 261.586 241.276L193.756 241.778C184.585 241.846 175.771 245.342 169.047 251.579L124.464 292.933L54.9946 326.111L54.8773 325.994L54.1478 326.515L43.4142 331.647L43.8572 333.953L37.2137 338.747C37.2137 338.747 19.8237 359.615 5.91169 422.206C2.37262 438.132 0.630557 472.295 0.00176703 514.394C-0.029817 516.524 0.362285 518.638 1.15526 520.615C1.94824 522.592 3.12628 524.391 4.62088 525.908C6.11549 527.426 7.89683 528.631 9.86135 529.454C11.8259 530.277 13.9343 530.701 16.0642 530.701H387.112V530.701H433.423C435.552 530.7 437.659 530.276 439.622 529.455C441.585 528.633 443.366 527.429 444.86 525.914C446.354 524.398 447.533 522.601 448.327 520.626C449.121 518.651 449.515 516.539 449.486 514.41C448.872 468.601 447.13 431.372 443.559 414.101Z" fill="#3F3D56"/>
<path d="M385.674 239.327C385.674 242.259 385.116 245.191 383.999 248.124C382.881 251.021 381.119 253.622 378.71 255.926C376.301 258.23 373.159 260.115 369.284 261.581C365.444 263.012 360.819 263.728 355.408 263.728C349.962 263.728 344.9 263.065 340.223 261.738C335.545 260.412 331.617 258.928 328.441 257.287C328.266 253.657 328.301 249.852 328.545 245.872C328.825 241.857 329.226 238.279 329.75 235.137H339.542L341.584 248.281C341.689 249.014 341.898 249.712 342.212 250.375C342.527 251.004 343.015 251.615 343.679 252.208C344.831 253.29 346.506 254.32 348.705 255.297C350.905 256.24 353.348 256.711 356.036 256.711C360.016 256.711 363.088 255.664 365.252 253.569C367.452 251.44 368.551 248.612 368.551 245.087C368.551 242.783 368.08 240.758 367.137 239.012C366.23 237.267 364.973 235.696 363.367 234.3C361.796 232.903 359.911 231.612 357.712 230.425C355.548 229.203 353.209 227.964 350.695 226.707C348.042 225.345 345.424 223.949 342.841 222.518C340.257 221.052 337.971 219.393 335.981 217.543C333.991 215.658 332.368 213.459 331.111 210.945C329.889 208.397 329.279 205.395 329.279 201.939C329.279 198.623 329.872 195.533 331.059 192.671C332.281 189.808 334.079 187.347 336.452 185.287C338.861 183.228 341.863 181.622 345.459 180.47C349.055 179.283 353.244 178.689 358.026 178.689C362.076 178.689 366.16 179.091 370.279 179.894C374.433 180.697 378.012 181.744 381.014 183.036C381.258 186.492 381.276 190.017 381.066 193.613C380.892 197.209 380.543 200.63 380.019 203.876H370.489L368.342 192.409C368.167 191.501 367.905 190.733 367.556 190.105C367.242 189.441 366.753 188.848 366.09 188.324C365.113 187.556 363.751 186.911 362.006 186.387C360.295 185.863 358.532 185.601 356.717 185.601C353.121 185.601 350.329 186.544 348.339 188.429C346.384 190.314 345.407 192.863 345.407 196.074C345.407 198.204 345.808 200.054 346.611 201.625C347.449 203.196 348.636 204.627 350.172 205.919C351.708 207.21 353.593 208.467 355.827 209.689C358.061 210.911 360.592 212.22 363.42 213.616C366.352 215.082 369.162 216.636 371.85 218.276C374.573 219.917 376.947 221.75 378.972 223.775C380.996 225.799 382.62 228.086 383.841 230.634C385.063 233.183 385.674 236.08 385.674 239.327ZM423.002 208.013C420.175 208.013 417.836 209.13 415.985 211.364C414.17 213.599 413.001 217.404 412.477 222.78H432.323C432.358 222.431 432.375 222.064 432.375 221.68C432.375 221.296 432.375 220.86 432.375 220.371C432.375 216.775 431.59 213.825 430.019 211.521C428.483 209.183 426.144 208.013 423.002 208.013ZM447.247 248.961C445.85 253.5 442.988 257.025 438.659 259.539C434.33 262.052 429.076 263.309 422.897 263.309C418.185 263.309 414.083 262.576 410.592 261.11C407.136 259.644 404.273 257.584 402.004 254.931C399.735 252.278 398.042 249.066 396.925 245.296C395.843 241.526 395.302 237.337 395.302 232.729C395.302 222.5 397.868 214.646 402.999 209.165C408.166 203.649 415.287 200.892 424.364 200.892C432.079 200.892 437.873 202.759 441.748 206.495C445.658 210.23 447.613 215.152 447.613 221.261C447.613 222.448 447.543 223.792 447.404 225.293C447.264 226.794 447.072 228.138 446.828 229.325H412.163V229.692C412.163 238 413.42 243.969 415.933 247.6C418.447 251.196 422.391 252.993 427.767 252.993C430.804 252.993 433.702 252.417 436.46 251.265C439.252 250.113 441.521 248.438 443.267 246.239L447.247 248.961ZM488.281 255.245V262H456.863V255.245L462.832 254.198C463.635 254.058 464.263 253.727 464.717 253.203C465.171 252.679 465.398 251.999 465.398 251.161V215.187C465.398 214.349 465.188 213.651 464.77 213.092C464.351 212.534 463.74 212.185 462.937 212.045L456.234 210.841V203.981C459.62 203.039 463.199 202.323 466.969 201.834C470.739 201.311 474.282 201.031 477.599 200.996L479.955 203.196L480.898 208.956C483.306 206.233 486.151 204.243 489.433 202.986C492.714 201.729 496.223 201.101 499.958 201.101C504.112 201.101 507.446 201.817 509.959 203.248C512.473 204.679 514.358 206.739 515.615 209.427C518.338 206.46 521.444 204.33 524.935 203.039C528.461 201.747 532.144 201.101 535.984 201.101C543.071 201.101 547.888 203.126 550.436 207.175C553.02 211.19 554.311 216.897 554.311 224.298V251.161C554.311 252.033 554.521 252.732 554.94 253.255C555.394 253.744 556.039 254.058 556.877 254.198L562.847 255.245V262H531.428V255.245L535.46 254.25C536.263 254.006 536.874 253.657 537.293 253.203C537.747 252.714 537.974 252.033 537.974 251.161V226.236C537.974 220.964 537.206 217.142 535.67 214.768C534.169 212.359 531.568 211.155 527.868 211.155C526.192 211.155 524.447 211.417 522.631 211.94C520.816 212.429 519.018 213.249 517.238 214.401C517.517 215.798 517.709 217.281 517.814 218.852C517.954 220.388 518.023 222.029 518.023 223.775V251.161C518.023 252.033 518.233 252.697 518.652 253.151C519.071 253.604 519.682 253.971 520.484 254.25L524.621 255.245V262H495.14V255.245L499.172 254.25C499.94 254.006 500.551 253.657 501.005 253.203C501.459 252.714 501.686 252.033 501.686 251.161V225.869C501.686 220.668 500.988 216.915 499.591 214.611C498.23 212.307 495.751 211.155 492.156 211.155C490.515 211.155 488.77 211.417 486.919 211.94C485.069 212.464 483.341 213.215 481.735 214.192V251.161C481.735 252.033 481.927 252.697 482.311 253.151C482.695 253.604 483.271 253.953 484.039 254.198L488.281 255.245ZM648.407 180.208H678.936V187.277L672.966 188.796C672.163 189.005 671.552 189.372 671.133 189.895C670.714 190.419 670.505 191.1 670.505 191.937V231.786C670.505 237.441 669.754 242.276 668.253 246.291C666.787 250.271 664.693 253.517 661.97 256.031C659.282 258.544 655.965 260.377 652.021 261.529C648.111 262.681 643.73 263.257 638.877 263.257C627.846 263.257 619.66 260.673 614.319 255.507C608.978 250.34 606.307 242.137 606.307 230.896V191.937C606.307 191.1 606.098 190.436 605.679 189.948C605.26 189.424 604.666 189.04 603.898 188.796L598.4 187.277V180.208H635.107V187.277L626.467 189.057C625.664 189.197 625.036 189.546 624.582 190.105C624.163 190.628 623.954 191.292 623.954 192.095V232.415C623.954 240.269 625.367 246.186 628.195 250.166C631.058 254.145 635.543 256.135 641.653 256.135C648.32 256.135 652.998 254.006 655.686 249.747C658.374 245.453 659.718 239.763 659.718 232.676V191.99C659.718 191.117 659.491 190.419 659.037 189.895C658.618 189.372 658.008 189.04 657.205 188.9L648.407 187.277V180.208ZM686.053 259.015C685.704 256.223 685.564 253.377 685.634 250.48C685.739 247.548 685.983 244.79 686.367 242.207H694.641L696.788 250.009C697.102 251.126 697.416 251.999 697.73 252.627C698.079 253.22 698.585 253.761 699.249 254.25C700.052 254.774 701.239 255.332 702.809 255.926C704.38 256.519 706.161 256.816 708.151 256.816C711.118 256.816 713.387 256.083 714.958 254.617C716.529 253.116 717.314 251.318 717.314 249.223C717.314 247.722 716.913 246.431 716.11 245.348C715.307 244.266 714.19 243.271 712.759 242.364C711.362 241.456 709.669 240.566 707.679 239.693C705.724 238.82 703.56 237.843 701.186 236.761C696.718 234.701 693.087 232.38 690.295 229.796C687.502 227.178 686.105 223.548 686.105 218.905C686.105 213.459 688.148 209.095 692.232 205.814C696.351 202.532 702.338 200.892 710.193 200.892C713.509 200.892 716.983 201.223 720.613 201.887C724.244 202.55 727.316 203.388 729.829 204.4C730.004 206.913 730.021 209.567 729.881 212.359C729.742 215.152 729.428 217.84 728.939 220.423L721.241 220.371L719.095 213.145C718.78 212.167 718.431 211.382 718.047 210.788C717.663 210.195 717.087 209.671 716.319 209.217C715.481 208.659 714.521 208.24 713.439 207.961C712.357 207.681 711.17 207.524 709.879 207.489C707.365 207.455 705.288 208.065 703.647 209.322C702.041 210.544 701.239 212.307 701.239 214.611C701.239 216.112 701.605 217.404 702.338 218.486C703.071 219.533 704.031 220.458 705.218 221.261C706.44 222.064 707.836 222.815 709.407 223.513C710.978 224.176 712.619 224.857 714.329 225.555C716.808 226.602 719.199 227.702 721.503 228.854C723.842 230.006 725.884 231.332 727.63 232.833C729.375 234.335 730.772 236.097 731.819 238.122C732.866 240.147 733.39 242.556 733.39 245.348C733.39 248.351 732.761 251.004 731.505 253.308C730.248 255.577 728.503 257.479 726.268 259.015C724.034 260.516 721.364 261.651 718.257 262.419C715.15 263.187 711.781 263.571 708.151 263.571C703.787 263.571 699.685 263.082 695.845 262.105C692.04 261.162 688.776 260.132 686.053 259.015ZM797.837 262.943C794.904 262.943 792.478 262.332 790.558 261.11C788.673 259.853 787.242 258.073 786.264 255.769C784.03 258.108 781.43 259.94 778.462 261.267C775.53 262.559 771.934 263.204 767.675 263.204C761.357 263.204 756.644 261.476 753.537 258.02C750.465 254.564 748.929 249.293 748.929 242.207V214.977C748.929 214.175 748.737 213.511 748.353 212.988C747.969 212.429 747.358 212.063 746.52 211.888L740.603 210.579V203.667C743.955 202.829 747.69 202.183 751.809 201.729C755.928 201.276 759.681 201.049 763.067 201.049L765.267 203.143V239.903C765.267 245.104 765.982 248.735 767.414 250.794C768.88 252.819 771.306 253.831 774.692 253.831C776.472 253.831 778.253 253.552 780.033 252.993C781.814 252.4 783.507 251.562 785.112 250.48V214.977C785.112 214.14 784.903 213.441 784.484 212.883C784.065 212.324 783.454 211.958 782.651 211.783L776.054 210.422V203.562C777.764 203.143 779.614 202.777 781.604 202.463C783.594 202.148 785.601 201.887 787.626 201.677C789.651 201.468 791.658 201.311 793.648 201.206C795.638 201.101 797.488 201.049 799.198 201.049L801.45 203.143V250.742C801.45 251.894 801.694 252.697 802.183 253.151C802.707 253.604 803.405 253.884 804.278 253.988L809.671 254.617V260.953C808.449 261.337 806.686 261.756 804.382 262.209C802.113 262.698 799.931 262.943 797.837 262.943ZM840.55 253.779C842.436 253.779 844.268 253.482 846.049 252.889C847.864 252.26 849.47 251.423 850.866 250.375V237.075L843.692 237.599C840.062 237.843 837.461 238.785 835.89 240.426C834.319 242.067 833.534 244.161 833.534 246.71C833.534 249.014 834.075 250.777 835.157 251.999C836.274 253.185 838.072 253.779 840.55 253.779ZM863.381 262.943C860.553 262.943 858.145 262.401 856.155 261.319C854.2 260.202 852.734 258.369 851.756 255.821C849.697 258.125 847.113 259.94 844.006 261.267C840.934 262.559 837.531 263.204 833.796 263.204C828.664 263.204 824.51 261.895 821.333 259.277C818.191 256.624 816.62 253.063 816.62 248.595C816.62 245.732 817.266 243.254 818.558 241.159C819.884 239.03 821.63 237.284 823.794 235.923C825.958 234.527 828.42 233.462 831.177 232.729C833.97 231.961 836.833 231.489 839.765 231.315L850.866 230.582V224.351C850.866 219.673 849.854 216.426 847.829 214.611C845.839 212.796 842.889 211.888 838.98 211.888C835.733 211.888 832.713 212.429 829.921 213.511C827.128 214.559 824.527 216.147 822.118 218.276L818.401 214.925C820.006 210.561 822.991 207.158 827.355 204.714C831.753 202.236 837.217 200.996 843.745 200.996C851.704 200.996 857.534 202.899 861.234 206.704C864.934 210.509 866.785 216.147 866.785 223.617V250.742C866.785 251.859 867.012 252.662 867.465 253.151C867.954 253.604 868.652 253.884 869.56 253.988L875.006 254.617V260.953C873.819 261.302 872.073 261.721 869.769 262.209C867.465 262.698 865.336 262.943 863.381 262.943ZM918.8 255.297V262H881.831V255.245L887.748 254.198C888.586 254.058 889.232 253.744 889.686 253.255C890.14 252.732 890.367 252.033 890.367 251.161V215.292C890.367 214.419 890.157 213.703 889.738 213.145C889.354 212.551 888.726 212.185 887.853 212.045L881.203 210.788V203.981C884.345 203.039 887.748 202.323 891.414 201.834C895.079 201.311 898.466 201.031 901.572 200.996L904.138 203.091L905.866 213.249C908.17 209.619 910.946 206.652 914.192 204.348C917.439 202.009 920.807 200.839 924.298 200.839C925.415 200.839 926.794 200.996 928.435 201.311C930.076 201.59 931.332 201.956 932.205 202.41C932.38 203.911 932.467 205.569 932.467 207.385C932.502 209.2 932.45 211.068 932.31 212.988C932.205 214.908 932.013 216.863 931.734 218.852C931.49 220.842 931.175 222.727 930.791 224.508H923.408L921.68 217.7C921.331 216.479 920.86 215.658 920.266 215.239C919.673 214.82 918.818 214.611 917.7 214.611C916.06 214.576 914.262 214.908 912.307 215.606C910.387 216.304 908.519 217.456 906.704 219.062V251.161C906.704 252.033 906.931 252.732 907.385 253.255C907.839 253.779 908.502 254.093 909.375 254.198L918.8 255.297ZM964.782 203.143V251.161C964.782 251.999 964.992 252.679 965.411 253.203C965.864 253.727 966.51 254.058 967.348 254.198L973.265 255.245V262H939.91V255.245L945.827 254.198C946.664 254.058 947.31 253.727 947.764 253.203C948.218 252.679 948.445 251.999 948.445 251.161V215.135C948.445 214.297 948.235 213.616 947.816 213.092C947.398 212.534 946.787 212.185 945.984 212.045L939.281 210.788V203.981C942.772 203.004 946.647 202.271 950.906 201.782C955.165 201.293 959.04 201.049 962.531 201.049L964.782 203.143ZM964.992 184.659C964.992 187.312 964.136 189.459 962.426 191.1C960.715 192.705 958.446 193.508 955.619 193.508C952.756 193.508 950.452 192.705 948.707 191.1C946.996 189.459 946.141 187.312 946.141 184.659C946.141 182.041 946.996 179.929 948.707 178.323C950.452 176.717 952.756 175.914 955.619 175.914C958.446 175.914 960.715 176.717 962.426 178.323C964.136 179.929 964.992 182.041 964.992 184.659ZM981.005 232.676C981.005 226.951 981.773 222.064 983.309 218.015C984.88 213.93 987.009 210.631 989.697 208.118C992.42 205.604 995.632 203.772 999.332 202.62C1003.03 201.433 1006.99 200.839 1011.22 200.839C1020.4 200.839 1027.45 203.457 1032.37 208.694C1037.3 213.895 1039.76 221.523 1039.76 231.577C1039.76 237.302 1038.97 242.189 1037.4 246.239C1035.86 250.288 1033.74 253.569 1031.01 256.083C1028.32 258.596 1025.13 260.429 1021.43 261.581C1017.73 262.733 1013.75 263.309 1009.49 263.309C1000.31 263.309 993.258 260.708 988.336 255.507C983.449 250.305 981.005 242.695 981.005 232.676ZM1022.01 232.833C1022.01 224.351 1021.15 218.119 1019.44 214.14C1017.76 210.125 1014.64 208.118 1010.07 208.118C1006.26 208.118 1003.42 209.863 1001.53 213.354C999.646 216.845 998.704 222.849 998.704 231.367C998.704 239.815 999.542 246.047 1001.22 250.061C1002.93 254.076 1006.09 256.083 1010.7 256.083C1014.5 256.083 1017.33 254.337 1019.18 250.847C1021.06 247.321 1022.01 241.316 1022.01 232.833ZM1050.55 259.015C1050.2 256.223 1050.06 253.377 1050.13 250.48C1050.24 247.548 1050.48 244.79 1050.87 242.207H1059.14L1061.29 250.009C1061.6 251.126 1061.92 251.999 1062.23 252.627C1062.58 253.22 1063.09 253.761 1063.75 254.25C1064.55 254.774 1065.74 255.332 1067.31 255.926C1068.88 256.519 1070.66 256.816 1072.65 256.816C1075.62 256.816 1077.89 256.083 1079.46 254.617C1081.03 253.116 1081.81 251.318 1081.81 249.223C1081.81 247.722 1081.41 246.431 1080.61 245.348C1079.81 244.266 1078.69 243.271 1077.26 242.364C1075.86 241.456 1074.17 240.566 1072.18 239.693C1070.22 238.82 1068.06 237.843 1065.69 236.761C1061.22 234.701 1057.59 232.38 1054.79 229.796C1052 227.178 1050.61 223.548 1050.61 218.905C1050.61 213.459 1052.65 209.095 1056.73 205.814C1060.85 202.532 1066.84 200.892 1074.69 200.892C1078.01 200.892 1081.48 201.223 1085.11 201.887C1088.74 202.55 1091.82 203.388 1094.33 204.4C1094.5 206.913 1094.52 209.567 1094.38 212.359C1094.24 215.152 1093.93 217.84 1093.44 220.423L1085.74 220.371L1083.59 213.145C1083.28 212.167 1082.93 211.382 1082.55 210.788C1082.16 210.195 1081.59 209.671 1080.82 209.217C1079.98 208.659 1079.02 208.24 1077.94 207.961C1076.86 207.681 1075.67 207.524 1074.38 207.489C1071.87 207.455 1069.79 208.065 1068.15 209.322C1066.54 210.544 1065.74 212.307 1065.74 214.611C1065.74 216.112 1066.11 217.404 1066.84 218.486C1067.57 219.533 1068.53 220.458 1069.72 221.261C1070.94 222.064 1072.34 222.815 1073.91 223.513C1075.48 224.176 1077.12 224.857 1078.83 225.555C1081.31 226.602 1083.7 227.702 1086 228.854C1088.34 230.006 1090.38 231.332 1092.13 232.833C1093.88 234.335 1095.27 236.097 1096.32 238.122C1097.37 240.147 1097.89 242.556 1097.89 245.348C1097.89 248.351 1097.26 251.004 1096 253.308C1094.75 255.577 1093 257.479 1090.77 259.015C1088.53 260.516 1085.86 261.651 1082.76 262.419C1079.65 263.187 1076.28 263.571 1072.65 263.571C1068.29 263.571 1064.19 263.082 1060.35 262.105C1056.54 261.162 1053.28 260.132 1050.55 259.015Z" fill="black"/>
<path d="M238.323 215.794C287.4 215.794 327.186 176.009 327.186 126.931C327.186 77.8536 287.4 38.0683 238.323 38.0683C189.245 38.0683 149.46 77.8536 149.46 126.931C149.46 176.009 189.245 215.794 238.323 215.794Z" fill="#C47A85" fill-opacity="0.83"/>
<path d="M146.989 42.1093C151.483 38.524 156.736 35.2251 162.483 35.4106C168.229 35.5958 174.056 40.7857 172.865 46.4103C183.42 27.7223 200.22 13.3491 220.316 5.81354C240.412 -1.72202 262.521 -1.93835 282.761 5.20253C297.042 10.2413 311.048 20.3217 314.329 35.1067C315.171 38.902 315.352 43.0636 317.721 46.1455C320.709 50.0313 326.426 50.9103 331.133 49.5433C331.18 49.5297 331.227 49.5158 331.274 49.5018C332.069 49.2302 332.928 49.2035 333.738 49.4252C334.549 49.6468 335.274 50.1065 335.821 50.7449C336.367 51.3832 336.709 52.1709 336.803 53.0059C336.897 53.8409 336.738 54.685 336.347 55.4288L332.306 62.9653C337.4 64.1007 342.693 63.9881 347.734 62.6371C348.572 62.4175 349.457 62.4623 350.268 62.7655C351.079 63.0686 351.776 63.6153 352.264 64.3304C352.752 65.0455 353.007 65.8941 352.993 66.7597C352.98 67.6253 352.699 68.4656 352.189 69.1653C338.864 87.4595 316.603 99.2729 293.886 99.134C277.74 99.0356 261.428 93.471 245.714 97.1839C239.635 98.6203 233.955 101.399 229.09 105.317C224.225 109.236 220.299 114.193 217.6 119.826C214.901 125.459 213.498 131.625 213.492 137.872C213.487 144.118 214.881 150.286 217.57 155.924C212.743 150.644 203.411 151.894 198.473 157.071C193.535 162.248 192.257 169.975 192.755 177.112C193.515 188.028 197.792 198.313 202.301 208.324C164.5 207.134 128.746 180.617 116.711 144.752C104.626 108.737 117.292 65.7996 146.989 42.1093Z" fill="#2F2E41"/>
<g opacity="0.2" filter="url(#filter0_d_1:31)">
<path d="M87.4639 393.792L112.388 529.399L127.343 530.701L87.4639 393.792Z" fill="black"/>
</g>
<path opacity="0.2" d="M362.007 383.565L337.083 529.301L322.128 530.701L362.007 383.565Z" fill="black"/>
<path d="M499.091 152.932C494.312 154.928 489.326 152.741 487.235 147.733C485.111 142.648 487.094 137.486 491.95 135.459C496.806 133.431 501.703 135.623 503.861 140.79C505.986 145.879 504.025 150.872 499.091 152.932ZM489.937 125.45L486.137 127.037C485.188 127.428 484.126 127.45 483.162 127.096C482.198 126.742 481.402 126.04 480.931 125.127L480.743 124.76C476.655 117.386 476.187 108.425 479.359 98.1387C482.298 88.9114 483.519 82.4219 481.064 76.5427C478.226 69.7453 472.165 67.616 464.436 70.7005C461.438 71.9523 460.484 71.9323 458.125 74.2725C457.612 74.7878 457 75.1944 456.326 75.4682C455.653 75.7419 454.931 75.8772 454.204 75.866C453.501 75.8577 452.807 75.708 452.163 75.4257C451.519 75.1434 450.939 74.7344 450.457 74.223C449.527 73.2374 449.007 71.936 449 70.5816C448.993 69.2271 449.501 67.9205 450.42 66.9256C454.385 62.7749 459.167 59.4911 464.466 57.2815C481.072 50.3472 489.432 60.5847 493.257 69.7463C496.999 78.7074 494.894 87.0218 491.512 97.7897C488.678 106.737 488.843 113.367 492.063 119.959C492.295 120.458 492.424 120.998 492.443 121.548C492.461 122.097 492.368 122.645 492.17 123.158C491.971 123.671 491.671 124.138 491.288 124.532C490.904 124.926 490.444 125.238 489.937 125.45L489.937 125.45Z" fill="#6C63FF"/>
</g>
<defs>
<filter id="filter0_d_1:31" x="83.4639" y="393.792" width="47.879" height="144.909" filterUnits="userSpaceOnUse" color-interpolation-filters="sRGB">
<feFlood flood-opacity="0" result="BackgroundImageFix"/>
<feColorMatrix in="SourceAlpha" type="matrix" values="0 0 0 0 0 0 0 0 0 0 0 0 0 0 0 0 0 0 127 0" result="hardAlpha"/>
<feOffset dy="4"/>
<feGaussianBlur stdDeviation="2"/>
<feComposite in2="hardAlpha" operator="out"/>
<feColorMatrix type="matrix" values="0 0 0 0 0 0 0 0 0 0 0 0 0 0 0 0 0 0 0.25 0"/>
<feBlend mode="normal" in2="BackgroundImageFix" result="effect1_dropShadow_1:31"/>
<feBlend mode="normal" in="SourceGraphic" in2="effect1_dropShadow_1:31" result="shape"/>
</filter>
<clipPath id="clip0_1:31">
<rect width="1121" height="544" fill="white"/>
</clipPath>
</defs>
</svg>
